<svg xmlns="http://www.w3.org/2000/svg" fill="none" viewBox="0 0 200 200" height="700" width="700"><path fill="#0e2238" d="M28.54 116.555c-3.95.54-6.9 2.5-10.369 4.266a6.713 6.713 0 01-2.756.956 1.47 1.47 0 01-1.218-.463c-.781-.841.148-2.284-.448-2.929-.952-1.028-3.3-.65-3.033-2.846.243-2.01 3.069-1.764 4.1-3.1 1.391-1.8 1.052-4.11 2.57-5.954 1.867-2.267 4.9-3.1 6.649-5.513 3.217-4.433 2.616-10.472 6.08-14.828 3.306-4.157 9.227-5.188 14.291-3.653 1.839.557 3.391 1.675 5.177 2.308 1.871.663 4.588-.078 5.9 2.18.092.263.162.533.209.808a11.222 11.222 0 01-.187 1.98 13.002 13.002 0 01-2.7 6.559c-1.351 1.515-2.657 1.352-3.451 2.435-1 1.366-.419 3.495-1.457 4.744-.62.746-1.232-.5-1.479-.9-.762-1.248-1.994-2.652-3.474-1.457a2.888 2.888 0 00-.246 3.929c.338.417 1.294.808 1.083 1.442-1.039 3.132-3.513 7.188-6.581 8.531-2.632 1.151-5.638 1.093-8.66 1.505z"/><path fill="#def6f8" d="M120.358 36.555c.358-.4.418-1.181.762-1.539.4-.419 1.173-.366 1.673-.628l.023.038c.127 1.561-2.032 10.815-10.668 7.246-9.367-3.872-3.16-12.558-3.16-12.558l.067-.03c.453.908.722.971.807 1.45-.005.44-.12.872-.336 1.255l-.082-.03c-.605-.344-.65.179-.673.358a5.65 5.65 0 00.389 2.1 8.177 8.177 0 001.965 3 6.154 6.154 0 004.99 2.189 6.409 6.409 0 004.265-1.95c.188-.16.365-.332.531-.515.052-.06.127-.165.082-.247-.045-.082-.165-.119-.262-.157l-.373.018z"/><path fill="#00bac7" d="M86.525 92.926a13.087 13.087 0 00-7.95-2.682c-.1 0-1.564.031-1.665.052.26-3.356.273-6.727.038-10.085l.172-.015a12.616 12.616 0 019.435-4.243l.029.508c2.558 7.94 12.979 9.32 19.386 4.691l.149-.448c1.181.411 2.2.792 2.578.956 6.211 2.69 3.8 17.175 2.749 18.123a7.792 7.792 0 01-2.077 1.009 80.807 80.807 0 01-3.563 1.061l-.254.022a9.935 9.935 0 01-2.832 8.322c-1.492 1.6-3 2-3.092 4.6l-.3.269c-3.324-3.623-7.8-6.126-10.25-10.526a18.71 18.71 0 01-2.553-11.614z"/><path fill="#0e2238" d="M63.053 39.207c-3.033-.014-4.721 4.078-3.265 6.47l-.351.006c-.052 0-.157.171-.224.224-.566.455-.68.565-1.344 1.07l-.307-.39c-2.39-.68-7.188-2.505-6.2-5.378.635-1.848 2.06-2.168 1.98-3.01-.062-.65-.914-1.277-1.263-1.794-2.16-3.194-.688-6.317 3.436-6.91.568-.08 1.5.088 2-.239.484-.315.337-1.537.418-2.032.652-3.972 4.5-5.095 6.91-3.048.291.247.68.982 1.113.971.62-.014 1.342-.662 1.89-.918a5.9 5.9 0 014.632-.2 6.293 6.293 0 012.711 3.078c.206.483.361 1.594.837 1.89.451.28 1.4-.01 1.92.007a4.8 4.8 0 013.75 1.927c.467.781.688 1.685.635 2.593-.04.776-.352 1.666.127 2.368 1.215 1.78 5.69 3.887 3.324 6.626-1.307 1.513-4.1 1.3-5.842-.127-.358-.3-.864-1.364-1.329-1.427-.55.034-1.09.157-1.6.366a4.75 4.75 0 01-4.871-1.374c-.061-.074-.583-.943-.657-.912-.264.113-.411 1.51-.515 1.763a5.8 5.8 0 01-1.988 2.75 2.54 2.54 0 01-3.354.12l-.269-.09c.55-1.758-.392-4.372-2.304-4.38zM95.25 68.274c-.4-.217.336-2.316.418-2.593.074-.246.15-.5.232-.762l-.553-.164c-1.531-3.347-4.6-.126-4.228 1.823.178.941.419 1.993 1.375 2.323a4.03 4.03 0 011.277.747l-.135.262a25.842 25.842 0 01-.948 4.7l-.351-.119c-1.173-.277-1.187-1.242-1.427-1.39-.611-.376-1.65.68-2.585-.209-.582-.553-.814-2.315-1.494-2.585-1.016-.4-2.238 1.232-2.921-.575-.929-2.459 1.913-4.825 3.153-6.6 1.606-2.293 2.531-4.974 4.153-7.246 4.234-5.933 13.265-8.006 19.147-2.906.075.066.678.714.829.672.562-.157 3.84 3.15 4.878 7.6.976 4.192-.02 8.367.045 12.587.018 1.173.571 3.708-.643 4.52-1.476.987-1.785-2.076-2.472-1.793-1.949.8-5.05 3.952-7.829 1.546l-.59-.156c2.487-1.009 5.118-3.018 6.006-5.312.785-2.03.689-4.8 1.158-6.962.337-1.56.508-5.558-2.5-7.015l-.425-.187c-1.106 2.57-3.3 5.707-4.751 6.171-.39.125.035-1.129.067-1.248.39-1.457 1.615-4.926.717-4.84-.478.045-2.428 1.785-4.281 3.593-1.292 1.262-2.532 2.562-3.182 3.324a30.112 30.112 0 01-2.14 2.794zm49.424-5.298c-1.27 1.233-1.337 3.69-1.382 5.655-.384.21-.044.183-.643.172-1.18.045-1.882-2.092-1.83-2.95.083-1.368 1.208-1.884 1.6-3.049a6.139 6.139 0 00-.105-2.174 3.05 3.05 0 012.181-3.339c1.4-.4 2.854.044 4.266-.246 1.277-.263 2.316-1.11 3.578-1.435a10.7 10.7 0 016.8.964c5.289 2.407 4.521 4.711 5.476 6.47.6 1.104 1.809 1.635 2.383 2.808 1.856 3.793-.65 8.1-3.735 10.63l-.194-.074a5.39 5.39 0 00.3-1.158c.334-2.324-1.411-5.147-3.354-3.952l-.06-.29a5.102 5.102 0 01-3.645-3.632c-.09-.456.072-1.819-.314-2.144-.356-.3-.973.6-2.9.956a4.143 4.143 0 01-2.396-.489l.1.688c-2.794.358-4.736-1.83-5.744-3.818l-.382.407z"/><path fill="#fff" d="M93.09 127c1.24-1.568 1.14-1.225 1.159-1.42a22.283 22.283 0 0110.651 3.98c.133.091.316.217.525.351-6.788-.147-8.663-.963-11.036-2.106A4.588 4.588 0 0193.09 127z"/><path fill="#fff" d="M112.521 128.9a.675.675 0 01-.388.179c.1.276.127.538-.037.695-.359.343-1.229-.265-1.509-.463-1.618-1.146-2.049-2.14-3.833-3.048-.274-.14-1.607-.763-1.882-.359-.188.276.582.9.732 1.038.522.494 3.336 2.621 2.092 3.519-.717.517-2.077-.415-2.794-.9a23.7 23.7 0 00-7.867-3.548c-3.6-.85-8.257-.516-11.922-.023-5.57.75-9.591 1.187-15.143.5a17.523 17.523 0 00-2.741-.553l-.142-.1a35.038 35.038 0 002.667-5.431c.374-.762.67-1.561.88-2.383l.196.045c7.859-.816 14.53 1.816 23.486 1.524.605-.02 1.218-.307 1.808-.1a1.22 1.22 0 00-.015.171c-.03 1.42 1.878.2 2.323-.164.553-.457 1.06-1.079.934-.9a8.401 8.401 0 00-1.561 3.713c-.033.238-.157 1.406.366 1.345.867-.1 1.738-2.744 2.054-3.385.156-.314.313-.628.463-.948.067-.142.21-.59.21-.434 0 1.151-1.08 2.542-1.24 3.758-.028.209-.2 1.262.194 1.33.283.049.6-.656.695-.822.3-.52 2.315-4.344 2.5-4.251.037.023-.73 1.533-.777 1.629a10.168 10.168 0 00-1.076 3.578c-.021.261-.037 1.115.441 1.053 1.134-.145 2.037-4.268 4.072-5.572 1.388-.891 1.135 2.7 2.106 2.151.439-.298.742-.757.844-1.277l.68.224a5.766 5.766 0 012.241 1.778 2.2 2.2 0 01.15.284l.059.067c-.478.373-.893.85-.65 1.344.107.216.307.232.456.381l.307.381c-.986.9-.151 1.61.478 1.39l.1.493a2.459 2.459 0 01.043 2.091z"/><path fill="#0e2238" d="M119.723 30.758a13.498 13.498 0 001.606-.658c.2-.063.5-.1.605.142.3.673-.45 1.45-.127 2.144.216.464.787.723 1.128 1.076.158.163.341.406.194.635-.385.6-1.5.386-2.009.919-.423.439-.437 1.54-1.061 1.748a.49.49 0 01-.545-.3c-.321-.557-.15-.831-.673-1.36-.493-.388-1.291-.265-1.867-.425-.246-.07-.59-.18-.7-.434-.233-.484.864-1.067 1.076-1.666.2-.56-.45-1.225-.411-1.83.022-.343.2-.681.59-.642.159.016 1.254.585 1.382.62.265.07.542.08.812.03z"/><path fill="#00bac7" d="M44.534 77.575c3.968 3.21 10.107 4.732 10.825 5-.254.65-.508 1.3-.74 1.927-.45-.15-3.068.2-8.68-3.115a13.8 13.8 0 01-1.883-1.315c-.113-.095-.508-.343-.515-.53l-.277-.105c.254-.7.486-1.45.687-2.218l.292.082c.057-.13.188.19.29.274z"/><path fill="#fff" d="M160.01 71.3l-.06-.29a5.101 5.101 0 01-3.645-3.632c-.09-.456.075-1.823-.314-2.144-.343-.294-1.01.612-2.9.956a4.146 4.146 0 01-2.391-.49l.1.688c-2.793.358-4.736-1.83-5.744-3.818l-.381.411c-1.613 1.565-1.291 5.063-1.435 7.12-.126 1.77-1.434 3.174-1.441 4.9.016 1.982 1.067 3.043 1.957 4.66 1.387 2.493 1.667 5.68 4.923 6.365 2.8.562 6.775-.9 9.2-4.348.706-1.017.857-3.268 2.055-3.107.401.06.808.065 1.21.015a2.741 2.741 0 001.4-1.12 5.688 5.688 0 00.821-2.212c.335-2.326-1.412-5.154-3.355-3.954zm-52.837 70.69c-.267.22-.567.396-.889.523-.038.014-.583.1-.516.029l-.037-.029c-.253.33-.565.611-.919.829a5.688 5.688 0 01-1.255.276c-.377.507-1.132 1.258-1.613.844-.516-.442-.037-1.645.1-2.151.405-1.47.697-2.968.874-4.482.049-.47.235-1.392-.075-1.816-.192-.263-.523.426-.583.531-.253.441-1.773 2.951-2.151 1.367-.527-2.205 1.622-5.283 1.711-7.463.027-.233-.017-.093.044-.717 1.285.112 2.535.157 3.566.179.695.441 1.695.967 2.269.553 1.244-.9-1.57-3.025-2.092-3.519-.15-.141-.92-.762-.732-1.038.275-.4 1.608.219 1.882.359a8.677 8.677 0 012.339 1.778l-.187.194c-.195 5.548 1.17 11.044-1.736 13.753z"/><path fill="#0e2238" d="M112.469 27.15c.4-.39.733-.593.919-.067.2.567.1 1.194.59 1.547a9.61 9.61 0 001.412.62c.179.089.456.246.463.478.017.522-1.032.719-1.322 1.344-.253.546.233 1.788-.456 2.1-.566.256-1.2-.628-1.7-.777a3.474 3.474 0 00-1.666.186c-.368.074-.907.177-1.165-.09-.347-.59.309-.85.321-1.956-.084-.468-.355-.531-.807-1.45-.227-.462-.3-.944.239-1.165.28-.093.581-.103.867-.03.26.058 1.195.306 1.449.38.1-.081.35-.538.478-.7a4.55 4.55 0 01.378-.42z"/><path fill="#fff" d="M37 156.671c-.052-.09.777 2.144.844 2.218.117.642-.556-.153 6.753-.194a40.31 40.31 0 0112.819 1.98h.314v3.294a489.704 489.704 0 00-30.51 4.266l-.081-.493c.78-4.231 4.017-8.664 9.33-11.109l.53.038zm120.881-74.995c.711-1.016.855-3.268 2.055-3.107a1.82 1.82 0 01-.068.627 49.878 49.878 0 01-2.988 9.794l.052.418a11.12 11.12 0 00-4.317 1.475h-1.338c.477-.217.263-.782.15-1.281-.96-4.243-.766-2.88-.844-3.481a10.676 10.676 0 007.298-4.445z"/><path fill="#def6f8" d="M60.782 115.358c-1.068-1.158-1.948-2.538-3.556-3.145a8.433 8.433 0 00-3.406-.53c-.135 0-.471-.068-.471-.008l-.09-.06c.479-.7.732-1.643 1.233-2.271.209-.261.867-.739.807-1.12-.118-.74-1.712-1.727-1.136-2.607.157-.24.553-.06.755.015.557.32 1.197.465 1.838.418.62-.179.7-1 1.023-1.457.639-.914 2.132-1.167 2.577-2.2.457-1.056-1.82-1.582-2.2-2.928-.28-1.833.243-2.095.209-4.333a8.8 8.8 0 00-.18-1.674c-.21-1.009-1.284-3.369-2.54-3.7h-.141c.252-1.635.25-2.015-.015-2.757l.015.015a3.2 3.2 0 00-1.33-1.292c1.01-3.034 3.492-8.36 4.034-12.072.337-2.3-.783-5.182.4-7.179a29.344 29.344 0 012.009-2.466 15.863 15.863 0 002.689-5.93l.09-.09c.45.458.96.852 1.517 1.172a4.211 4.211 0 002.136.717 9.653 9.653 0 01-.276 2.368c.545 1.106 2.856 2.47 3.712 3.325a22.064 22.064 0 016.455 14.634c.6 7.926-.6 11.27.149 15.232.4 2.1 2.643 3.034 3.526 4.916.992 2.114.608 4.592 1.726 6.663 2.465 4.568 6.977 8.591 10.369 12.468v.135c-5.623.124-11.946-1.618-18.273-1.7l.008-.291c-3.853-2.825-5.935-14.083-7.792-18.258a233.76 233.76 0 00-2.734 13.925 10.467 10.467 0 00-3.033 1.957l-.104.108z"/><path fill="#fff" d="M126.9 124.352c-.254-1.083-.979-3.518-.605-5.1l-.262-.052c-1.546-.732-3.294-.411-4.915-.74-1.143-.231-2.062-.65-3.257-.889-1.016-.194-3.108.5-3.108 1.636l.023.172a4.486 4.486 0 00-2.727 2.465l-.934.1c.272.252.499.547.672.874-.478.373-.9.851-.65 1.344.105.217.307.232.456.381l.325.369-.018.012c-.344.314-.6.7-.382 1.091.661 1.044 1.951-.594 6.746-1.673.366-.075 1.39-.381 1.7-.015.262.314-.709.807-.874.9-.815.363-1.608.772-2.375 1.225-.239.179-.628.508-.531.851.247.867 1.928.277 2.406.083a17.598 17.598 0 012.644-1.069c1.323-.306 4.281.247 5.745-.732l.209-.239a6.013 6.013 0 01-.288-.994zM100.6 79.2l.064-.639a7.827 7.827 0 01-5.764-5.148c-.451-1.178-.28-3.068-1.128-3.765l-.135.262a28.898 28.898 0 01-1.36 6.073l-.261-.082c-1.48.1-3.391-.067-5.46.052l.029.508c2.542 7.89 12.912 9.37 19.386 4.691l.149-.448a28.267 28.267 0 00-5.52-1.504z"/><path fill="#00bac7" d="M172.3 115.927c.127-.068.254-.135.373-.2 1.137-.641 2.094-1.958 3.3-2.405.554-.207.958.2 1.442.381a2.13 2.13 0 002.308-.508c1.526-1.6.48-4.306.657-8.405a22.195 22.195 0 00-.665-6.977c-1.165-4.155-4.653-7.86-9.061-8.486-2.846-.4-5.424.83-8.21.86a1.394 1.394 0 01-.172-.008l.03-.568c1.039-3.911 1.227-8 .553-11.99l-.306-.157c.045-.067.1-.149.142-.224l.65.217a19.08 19.08 0 0115.456 7.485c2.032 2.674 3.207 5.862 5.154 8.591 3.246 4.547 11.655 9.222 10.085 15.777a10.726 10.726 0 01-1.576 3.4 26.762 26.762 0 01-7.7 8.09l-.276.12c-.413-.772.033-1.713-2.361-2.876-1.488-.723-5.319-.426-9 .082-.911-2.191-.638-1.845-.823-2.199zm17.031 35.715a1.24 1.24 0 01-.076.967 1.232 1.232 0 01-.753.61l-.964.276a1.238 1.238 0 00-.885 1.048 1.23 1.23 0 00.041.479c.012.042.35 1.038.366 1.088a1.237 1.237 0 01-.78 1.554 1.231 1.231 0 01-1.558-.77l-.418-1.24a1.238 1.238 0 00-1.509-.792l-1.166.344a1.253 1.253 0 01-1.516-.792l-.015-.06a1.227 1.227 0 01.77-1.558c.047-.016.975-.281 1.023-.295a1.225 1.225 0 00.749-.612 1.247 1.247 0 00.08-.964l-.351-1.038a1.223 1.223 0 01.065-.941 1.23 1.23 0 011.653-.555c.293.145.516.401.62.711l.411 1.233a1.236 1.236 0 001.516.792l2.3-.665.397 1.18zm-4.288 23.83a1.24 1.24 0 01-.077.966 1.229 1.229 0 01-.752.61l-.964.284a1.238 1.238 0 00-.885 1.047c-.018.161-.004.324.041.48.013.045.351 1.033.366 1.08a1.232 1.232 0 01-1.155 1.626 1.235 1.235 0 01-1.183-.839l-.418-1.232a1.23 1.23 0 00-1.509-.792l-1.166.336a1.258 1.258 0 01-1.513-.841 1.26 1.26 0 01.752-1.559c.047-.016.975-.281 1.023-.295a1.244 1.244 0 00.887-1.086 1.254 1.254 0 00-.058-.49l-.351-1.038a1.226 1.226 0 01.065-.941 1.23 1.23 0 011.189-.682c.161.012.319.054.464.126a1.248 1.248 0 01.62.712l.411 1.233c.101.302.316.554.599.701.282.148.611.181.917.091l2.3-.665.397 1.168zm-2.189-47.668a1.22 1.22 0 01-.079.965 1.226 1.226 0 01-.75.611l-.963.276a1.23 1.23 0 00-.848 1.517c.014.051.353 1.048.37 1.1a1.233 1.233 0 11-2.339.784l-.418-1.232a1.229 1.229 0 00-1.509-.792l-1.173.336a1.231 1.231 0 01-1.509-.792c-.016-.063-.025-.084-.067-.254a1.233 1.233 0 01.874-1.382l.971-.276a1.228 1.228 0 00.883-1.087 1.235 1.235 0 00-.061-.49l-.344-1.031a1.233 1.233 0 011.716-1.501c.293.145.517.4.622.71l.411 1.24a1.236 1.236 0 001.509.792l2.309-.673.395 1.179z"/><path fill="#0e2238" d="M179.717 113.192a2.129 2.129 0 01-2.308.508c-.484-.186-.888-.588-1.442-.381-1.2.447-2.158 1.764-3.3 2.405-3.893 2.2-10.09 1.444-11.078-2.8-.108-.463.077-1.878-.3-2.2-.223-.188-.679.1-.889.187-.663.28-2.637 1.061-2.973-.06a1.636 1.636 0 01.172-1.172c.322-.569.7-1.105 1.128-1.6 1.18-1.6 2.453-4 1.337-5.969-1.182-2.088-4.208-1-8.1-3.017-3.057-1.8-3.05-5.752.65-8.215a10.428 10.428 0 016.148-1.466c1.199.367 2.429.625 3.675.768 2.786-.03 5.364-1.263 8.21-.859 4.408.627 7.9 4.332 9.061 8.487.59 2.275.814 4.63.665 6.976-.173 4.097.87 6.808-.656 8.408z"/><path fill="#00bac7" d="M169.244 144.045a1.23 1.23 0 01-.822 1.576l-.971.284a1.23 1.23 0 00-.838 1.525c.011.04.346 1.043.36 1.082a1.234 1.234 0 01-2.339.785l-.41-1.233a1.238 1.238 0 00-1.509-.792l-1.173.336a1.227 1.227 0 01-1.509-.792l-.023-.052a1.238 1.238 0 01.781-1.561c.041-.014.969-.279 1.012-.291a1.243 1.243 0 00.888-1.086 1.257 1.257 0 00-.059-.491l-.351-1.038a1.23 1.23 0 01.779-1.553 1.232 1.232 0 011.559.769l.419 1.232a1.229 1.229 0 001.509.792l2.308-.665.389 1.173zm-1.382 20.119a1.233 1.233 0 01-.082.963 1.23 1.23 0 01-.748.613l-.971.284a1.234 1.234 0 00-.838 1.525l.36 1.082a1.233 1.233 0 11-2.338.784l-.411-1.232a1.235 1.235 0 00-.595-.7 1.235 1.235 0 00-.914-.092l-1.173.336a1.228 1.228 0 01-1.509-.792l-.022-.052a1.231 1.231 0 01.78-1.561c.041-.014.967-.279 1.013-.292a1.221 1.221 0 00.752-.611 1.234 1.234 0 00.077-.965l-.336-1.024c.889.12 1.785.2 2.682.269l.059.165a1.225 1.225 0 001.509.792l2.309-.665.396 1.173z"/><path fill="#def6f8" d="M192.648 156.886c-.067-2.562.8-5.184 1.039-7.739a26.267 26.267 0 00-2.07-13.319c-1.113-2.413-2.719-4.557-3.832-6.97-1.15-2.488-1.7-5.2-3.123-7.568-.711-1.1 0-2.016-2.547-3.249-2.438-1.188-11.317.414-14.014.889-1.45.176-2.878.507-4.258.986l-.075-.164a20.758 20.758 0 00-.657-1.876l-.016.008c-1.34-.167-2.66.548-4.489.964a16.553 16.553 0 01-7.769.356c-3.974-.572-7.39-1.608-11.572-1.836-2.47-.079-2.863.578-6.641.927-1.688.06-3.391-.867-5.072-.448a1.703 1.703 0 00-1.255 1.4c-.374 1.584.351 4.019.605 5.1.083.693.39 1.341.874 1.845 1.185.992 2.753-.295 6.066.7 7.393 2.211 12.454 4.788 21.865 2.988a18.942 18.942 0 015.342.18 25.085 25.085 0 01-.195 3.264c-.694 5.133-5.317 8.343-2.457 15.374.211.519 1.15 2.062.829 2.63-.239.418-2.211-.045-2.749.179-1.143.47-1.083 2.062-2.309 2.5a8.655 8.655 0 01-2.629.254c-1.672-.073-3.451-.142-4.393.747a2.5 2.5 0 00-.665 1.9 4.43 4.43 0 00.195 1.442c.095.285.259.542.478.747l-.045.343c-4.879-.415-5.586.065-7.254-.269l-.007.03a26.579 26.579 0 00-4.721.553c-.1.028-1.532.381-1.494.553a2.755 2.755 0 011.287 2.112 2.766 2.766 0 01-.921 2.295c-.329.227-.345.118-.284.224a183.476 183.476 0 0121.589 5.738c9.591 3.1 20.957 8.118 29.209 14.141l.373-.523c4.3-3.541 4.849-9.816 5.723-14.657.485-2.719 3.249-4.183 3.854-6.813.531-2.292-1.755-3.741-1.815-5.938zm-50.462-33.736l-.971.284a1.232 1.232 0 00-.822 1.577s.357 1.07.362 1.09a1.231 1.231 0 01-.826 1.508 1.236 1.236 0 01-1.53-.783l-.411-1.233a1.23 1.23 0 00-1.509-.792l-1.173.337a1.264 1.264 0 01-1.515-.874 1.26 1.26 0 01.815-1.547l1-.288a1.245 1.245 0 00.792-1.572l-.363-1.068a1.233 1.233 0 012.35-.747l.418 1.232a1.223 1.223 0 001.509.792l2.308-.665.405 1.225a1.226 1.226 0 01-.413 1.303 1.23 1.23 0 01-.426.221zm24.846 42.589l-1.022.3a1.234 1.234 0 00-.709.62 1.231 1.231 0 00-.062.94l.36 1.082a1.231 1.231 0 01-.818 1.52 1.232 1.232 0 01-1.536-.787l-.411-1.232a1.23 1.23 0 00-1.509-.792l-1.173.336a1.26 1.26 0 01-.7-2.42l1.023-.3a1.232 1.232 0 00.77-1.558 97.113 97.113 0 00-.344-1.039 1.234 1.234 0 01.342-1.342 1.239 1.239 0 011.755.13c.106.126.185.271.234.428l.418 1.233a1.227 1.227 0 001.509.792l2.309-.665s.4 1.2.407 1.21a1.239 1.239 0 01-.843 1.544zm1.39-20.118l-1.023.3a1.232 1.232 0 00-.77 1.56l.362 1.09a1.234 1.234 0 01-2.357.726l-.41-1.233a1.238 1.238 0 00-1.509-.792l-1.173.336a1.26 1.26 0 01-.7-2.42l1.006-.29a1.242 1.242 0 00.846-1.084 1.254 1.254 0 00-.06-.479l-.366-1.087a1.231 1.231 0 01.819-1.513 1.233 1.233 0 011.534.778l.419 1.232a1.229 1.229 0 001.509.792l2.308-.665.405 1.224a1.226 1.226 0 01-.414 1.304 1.23 1.23 0 01-.426.221zm5.147-15.3a1.236 1.236 0 01.874-1.382l1.022-.293a1.23 1.23 0 00.771-1.56l-.356-1.071a1.237 1.237 0 01.81-1.519 1.235 1.235 0 011.54.768l.411 1.24a1.24 1.24 0 001.509.792l2.309-.673.411 1.229a1.235 1.235 0 01-.845 1.528l-1.022.294a1.228 1.228 0 00-.771 1.558s.36 1.063.363 1.076a1.234 1.234 0 01-2.35.747l-.418-1.232a1.229 1.229 0 00-1.509-.792l-1.173.336c-.173.05-.354.062-.532.034a1.23 1.23 0 01-.869-.575 1.244 1.244 0 01-.175-.504v-.001zm10.645 46.727s-1 .293-1.012.3a1.238 1.238 0 00-.714.619 1.23 1.23 0 00-.067.942s.362 1.063.366 1.08a1.231 1.231 0 01-.819 1.513 1.233 1.233 0 01-1.534-.778l-.418-1.232a1.23 1.23 0 00-1.509-.792l-1.166.336a1.239 1.239 0 01-1.516-.792l-.033-.111a1.225 1.225 0 01.42-1.299c.127-.1.272-.174.427-.218l1-.288a1.244 1.244 0 00.792-1.565s-.364-1.078-.369-1.1a1.236 1.236 0 01.823-1.514 1.234 1.234 0 011.533.788l.411 1.233a1.233 1.233 0 001.516.792l2.3-.665.415 1.232a1.225 1.225 0 01-.419 1.301c-.126.1-.272.174-.427.218zm4.288-23.83l-1.013.291a1.235 1.235 0 00-.78 1.561s.362 1.071.366 1.087a1.233 1.233 0 01-2.353.736l-.418-1.24a1.24 1.24 0 00-1.509-.792l-1.166.344a1.252 1.252 0 01-1.549-.911 1.225 1.225 0 01.42-1.299c.127-.1.272-.174.427-.218l1-.288a1.251 1.251 0 00.72-.619 1.22 1.22 0 00.13-.466 1.222 1.222 0 00-.058-.48s-.364-1.077-.369-1.1a1.236 1.236 0 01.823-1.514 1.234 1.234 0 011.533.788l.411 1.233a1.236 1.236 0 001.516.792l2.3-.665.415 1.239a1.228 1.228 0 01-.848 1.522l.002-.001z"/><path fill="#fff" d="M163.23 161.63l.359 1.068c-.9-.067-1.793-.149-2.682-.269a1.227 1.227 0 011.7-1.504c.293.143.517.396.623.704v.001z"/><path fill="#00bac7" d="M162.3 89.61l-.03.568a24.768 24.768 0 01-3.5-.762 6.205 6.205 0 00-1.831-.008l-.052-.418a49.952 49.952 0 002.988-9.794 1.82 1.82 0 00.068-.627c.401.06.808.065 1.21.015a2.667 2.667 0 001.4-1.121l.306.157a28.36 28.36 0 01-.559 11.99zm-3.657 26.248l-.119-.321c1.5-.575 3.063-1.277 4.587 2.338l-.016.008c-1.359-.169-2.9.6-4 .837a10.172 10.172 0 01-.452-2.862z"/><path fill="#def6f8" d="M155.259 171.237l7.717 10.2-25.84-.948-5.237-8.15 1.278-.822c.306-.059.607-.142.9-.247.288-.162.185-.259.284-.037l20.898.004z"/><path fill="#fff" d="M160.854 133.326c.136-1.083.201-2.173.195-3.264a18.795 18.795 0 00-5.342-.18c-8.521 1.63-13.346-.3-20.827-2.659l-.082.246c-.657.06-1.778 1.031-2.323 1.345-3.663 2.069-6.22 3.3-9.607 4.871-5.072 2.36-16.226 6.185-8.882 19.96 2.637-.575 5.207-1.15 6.125-1.367 3.664.54 7.4 1.165 8.412 1.24a4.134 4.134 0 011.957.4c.15.216-.627 1.86-.672 2.189-.068.455.239 1.494-.023 1.867a1.81 1.81 0 01-.784.542h1.038a13.772 13.772 0 013.586 1.8c-.037-.171 1.4-.532 1.5-.56a9.508 9.508 0 011.18-.246l-.052-.777c-1.437-2.828-3.684-4.688-5.2-7.643-.186-.373-.889-2.973-1.315-3.077l-.014-.09c6.265-1.17 15.31-5.2 20.336-6.655a7.771 7.771 0 012.418 3.092c.755 2.114.008 4.079-.545 6.133-.217.769-.755 2.346-.389 3.152l-.007.62a7.982 7.982 0 002.629-.254c1.226-.44 1.166-2.032 2.309-2.5.538-.224 2.51.239 2.749-.179.321-.568-.618-2.111-.829-2.63-2.855-7.024 1.767-10.263 2.459-15.376zm11.52-17.257l-.075-.142c-3.868 1.939-9.707 1.161-10.705-3-.1-.463.075-1.875-.3-2.2-.224-.186-.68.1-.889.187-.665.277-2.637 1.061-2.973-.06-.2-.9.488-1.829 1.3-2.771 1.18-1.6 2.45-4 1.337-5.969-1.191-2.1-4.189-.994-8.1-3.018l-.038.209c.082 2.421-1.554 4.52-2.323 5.506-.351.448-1.27 1.1-1.143 1.77.179.957 1.143.994 2.047 1.024.447-.018.893.061 1.307.231.389.239-.358 1.621-.194 2.077a.825.825 0 00.341.405.825.825 0 00.518.111l.979.321a14.1 14.1 0 001.135 1.613c.695 1.009.434 2.518 1.509 3.257 2.352 1.6 5.136-4.331 7.665 4.132l.075.164a20.47 20.47 0 014.258-.986c1.441-.254 3.2-.56 5.012-.807a13.871 13.871 0 01-.743-2.054z"/><path fill="#fff" d="M159.1 118.721a16.67 16.67 0 01-8.262.483l.045-.3c-.247-2.786-.217-5.572-.284-8.366-.009-.351-.381-2.7-.09-2.936.447-.018.893.061 1.307.231.389.239-.363 1.623-.194 2.077a.811.811 0 00.859.516l.979.321c.22.521.4.522 1.135 1.613.685 1.016.432 2.521 1.509 3.257a2.448 2.448 0 002.421-.082l.119.321c.015.972.168 1.937.456 2.865z"/><path fill="#00bac7" d="M140.035 97.175c-3.011 1.427-6.389 2.061-8.815 4.52-1.039 1.053-1.674 2.382-2.637 3.481-1.054 1.2-2.409 2.1-3.459 3.317-.84.976-1.935 2.641-3.317 2.883-1.145.2-1.8-1.216-2.39-2.256a10.893 10.893 0 00-2.637-3.615c-1.544-.874-2.071-.626-2.675-1.4-.261-.441.215-1.122.448-1.457 1.809-2.595 4.682-3.229 6.709-5.356 1.724-1.81 2.262-4.476 4.011-6.328 1.71-1.809 4.17-2.628 6.036-4.25 2.7-2.344 5.334-7.829 11.109-9.15l.067-.039c.381.71.857 1.383 1.27 2.13.55 1 .934 2.113 1.4 3.137l-.515.24a23.926 23.926 0 00.172 6.6 5.05 5.05 0 00.829 2.584c.62.62 2.31-.593 2.943-.822.712-.256 2.017-.153 2.689-.512h1.338c-3.43 2.227-3.951 6.266-.65 8.214l-.038.21c.083 2.42-1.552 4.52-2.323 5.505-.351.448-1.269 1.1-1.143 1.77.181.956 1.143.994 2.047 1.024-.291.239.081 2.585.09 2.936.067 2.794.037 5.58.284 8.366l-.045.3c-3.459-.493-6.866-1.432-10.354-1.746l.037-.433a10.241 10.241 0 01-1.061-3.227c-.067-1.95.955-3.93 1.024-5.917.129-3.602-.589-6.448-.444-10.709z"/><path fill="#00bac7" d="M151.427 89.6c.113.5.327 1.064-.15 1.281-.672.359-1.977.256-2.689.512-.633.229-2.323 1.442-2.943.822a5.049 5.049 0 01-.829-2.585 23.926 23.926 0 01-.172-6.6l.515-.239c.688 1.509 1.567 2.826 3.519 3.227a6.408 6.408 0 001.905.1c.079.608-.118-.769.844 3.482z"/><path fill="#fff" d="M150.889 80.174c.052.866-.711 1.907-1.651 1.546-.6-.23-1.658-1.838-2.039-2.39 1.201-.1 3.601-.65 3.69.844z"/><path fill="#def6f8" d="M147.811 5c3.25 1.33-1.821 5.454-2.846 7.724-.664 1.472.685 2.331.807 3.594.139 1.434-1.076 3.04-2.084 4.317-.844 1.069-3.168 4.881-4.9 4.595-1.166-.193-1.5-1.278-.792-2.294 1.322-1.89 3.7-3.743 4.2-5.879.544-2.353-3.284-1.841 2.562-8.934.658-.8 1.315-1.6 2.017-2.368A5.875 5.875 0 01147.811 5z"/><path fill="#fff" d="M147.154 159.101l-.045.343c-5.229-.445-7.226.3-8.083-.754-.523-.747 1.053-1.7 1.517-1.98 1.373-.816 4.743-2.614 6.469-1.979l.134.283a2.5 2.5 0 00-.665 1.9 4.43 4.43 0 00.195 1.442c.094.284.259.541.478.745z"/><path fill="#00bac7" d="M143.008 121.573l-.389-1.173-2.308.665a1.223 1.223 0 01-1.509-.792l-.418-1.232a1.217 1.217 0 00-.611-.711 1.215 1.215 0 00-.935-.069 1.249 1.249 0 00-.721.618 1.242 1.242 0 00-.071.946s.359 1.056.362 1.069a1.256 1.256 0 01-.1.947 1.233 1.233 0 01-.741.599l-1.012.291a1.235 1.235 0 00-.78 1.561l.022.053a1.225 1.225 0 001.509.792l1.173-.337c.305-.088.633-.055.914.092.281.148.494.399.595.7l.411 1.233a1.231 1.231 0 002.268.153c.146-.291.171-.628.07-.937l-.344-1.031a1.216 1.216 0 01.074-.964 1.229 1.229 0 01.748-.613l1.022-.3a1.23 1.23 0 00.771-1.56z"/><path fill="#def6f8" d="M143.314 44.646c.6-1.064-1.21-1.951-1.957-2.166a4.499 4.499 0 00-1.532-.09c.149-.593 1.551-1.212 2.189-3.7a1.596 1.596 0 00-.2-1.27c-.4-.448-1-.2-1.389.112-.926.748-1.442 1.882-2.435 2.585-1.658 1.174-4.182.47-5.476 1.083a7.05 7.05 0 00-1.636 2.9 1.761 1.761 0 00-.06 1.172c.239.523.95.545 1.218 1.054.457.866.429 1.769 1.39 2.3a5.75 5.75 0 001.979.62c.232.033.605-.09.807.015.202.105.35.464.508.642a2.647 2.647 0 003.317.56c.293-.211.639-.871.4-1.213.685.008 1.513-.14 1.656-.8a.994.994 0 00-.359-1.053v-.022c.408.003.813-.079 1.188-.24.687-.351.345-1.106-.134-1.471a5.268 5.268 0 00-.874-.538V45.1h-.152c.497 0 1.274.037 1.552-.455z"/><path fill="#00bac7" d="M153.055 181.076l-15.919-.582-3.1-4.826c-.468.3.287-.508-4.583 5.184L150 185.633c3.372-4.932 3.055-4.432 3.055-4.557zm-20.804-15.65c-1.543.121-15.765 2.427-17.436 2.63a47.689 47.689 0 01-3.347.283c-.4.024-8.919-.067-11.467-.59a8.36 8.36 0 01-2.45 1.076c-.206.071-.917.211-.911.463.232.61.499 1.207.8 1.786a2.8 2.8 0 01-.135 1.509c-.074.2-.418.62-.313.851.134.3 13.282 2.077 14.021 2.077 1.327 0 21.809-3.786 23.069-4.236.414-.346.71-.814.844-1.337a2.92 2.92 0 00.284-1.068c-.151-2.269-.95-3.056-2.959-3.444z"/><path fill="#def6f8" d="M134.111 17.58c.614 1.3.015 3.227-.5 4.766-.433 1.292-1.322 5.662-3.048 5.984-1.158.216-1.846-.695-1.524-1.883.6-2.226 2.215-4.781 1.958-6.955-.284-2.394-3.714-.6-.628-9.278.345-.97.7-1.949 1.1-2.913.201-.376.441-.729.717-1.053 3.511.141.144 5.737-.052 8.224-.129 1.607 1.433 1.957 1.977 3.108z"/><path fill="#fff" d="M129.808 156.109c.045-.329.822-1.973.672-2.189a.288.288 0 00-.067-.068 6.903 6.903 0 00-2.346-.373c-2.181-.306-5.012-.769-7.956-1.2-.918.217-14.2 3.136-14.955 3.287-.344.06-1.024.023-1.292.306-.673.7-1.129 2.316-.314 3.063a18.172 18.172 0 002.883 1.45c1.928.783 5.432 2.265 8.1 3.137 1.478.372 2.635-.442 4.183-1.068.68-.269 5.969-2.458 7.956-3.227.5-.187 1.562-.378 2.331-.706.305-.107.576-.294.784-.542.26-.38-.047-1.415.021-1.87z"/><path fill="#def6f8" d="M121.1 30.07l.023.104a6.723 6.723 0 01-1.4.584 1.61 1.61 0 01-1.031-.127 12.59 12.59 0 00-1.158-.523c-.388-.04-.568.3-.59.642-.039.605.609 1.27.411 1.83-.154.434-.623.73-.9 1.084-.326.42-.344.774.516 1.015.576.16 1.374.038 1.867.425.244.247.411.56.478.9l-.044.016c-.053.036-.292-.03-.344-.039a26.966 26.966 0 01-5.558-2.017 15.332 15.332 0 01-2.659-1.352l-.008-.03a3.476 3.476 0 011.666-.185c.5.148 1.137 1.032 1.7.776.689-.312.2-1.554.456-2.1.287-.617 1.356-.838 1.322-1.343-.015-.224-.284-.39-.463-.479a9.636 9.636 0 01-1.412-.62c-.479-.346-.392-.951-.59-1.547l.015-.006s4.944-.997 7.703 2.992z"/><path fill="#fff" d="M119.417 109.122l-.381.209c-1.457.665-8.243 5.315-9.443 7.037-.625.9-.545 2.779-.934 4.1-.102.52-.405.979-.844 1.277-.971.545-.718-3.042-2.106-2.151-2.036 1.305-2.937 5.427-4.072 5.572-.478.062-.462-.792-.441-1.053a10.168 10.168 0 011.076-3.578c.047-.1.814-1.606.777-1.629-.187-.093-2.212 3.745-2.5 4.251-.095.166-.412.871-.695.822-.39-.068-.222-1.121-.194-1.33.16-1.216 1.24-2.607 1.24-3.758 0-.156-.143.292-.21.434-.15.32-.307.634-.463.948-.316.641-1.187 3.283-2.054 3.385-.523.061-.4-1.107-.366-1.345a8.403 8.403 0 011.56-3.713c.125-.172-.384.45-.933.9-.445.369-2.353 1.584-2.323.164.035-1.63 3.293-3.187 4.393-3.944 8.067-5.556 10.638-6.978 14.447-10.72l.105-.246c.6.186 1.179.437 1.726.747a10.877 10.877 0 012.635 3.621z"/><path fill="#def6f8" d="M116.107 39.161l.008.24a6.165 6.165 0 01-4.99-2.19l.037-.037a3.837 3.837 0 014.945 1.987z"/><path fill="#fff" d="M130.039 158.52H129c-.1.043-12.547 4.881-12.647 4.911-.585.21-1.22.242-1.823.09-2.059-.673-5.989-2.237-8.1-3.137l-.112.269a2.865 2.865 0 00-.343.134c-5.97 1.808-6.792 1.792-6.918 2.308-.157.673.523 1.711.605 2.4.06.441-.515 2.01-.067 2.159 1.8.557 10.635.768 12.632.643 4.311-.271 5.541-.825 13.955-2 1.008-.142 5.625-.859 6.051-.942a5.47 5.47 0 001.449-.463 2.027 2.027 0 001.165-1.531c.619-2.535-2.347-4.032-4.808-4.841zM109.5 101.142c.127.149-.208.665-.254.956-.373 2.34-.877 5.771-1.076 8.135l.142.2c-.1.067-3.579 2.456-6.148 4.168l-.149-.224c-.038-.784.018-1.576.03-2.36a5.89 5.89 0 01.082-1.237 11.044 11.044 0 003.2-5.15 9.996 9.996 0 00.224-3.758l.254-.022c.694-.187 2.233-.591 3.563-1.061l.132.353zm-.251-42.469l-.425-.187c-1.106 2.57-3.3 5.715-4.751 6.171-.586.191.478-2.082 1.053-4.975.045-.239.194-1.158-.269-1.113-.988.092-6.43 5.707-7.463 6.917-.66.97-1.376 1.9-2.144 2.787-.4-.217.336-2.316.418-2.593.075-.246.15-.5.232-.762l-.553-.164c-1.531-3.347-4.594-.127-4.228 1.823.179.941.419 1.993 1.375 2.323a4.03 4.03 0 011.277.747c.854.7.669 2.568 1.128 3.765 1.347 3.484 4.574 5.861 7.993 5.08 3.007-.689 6.619-3.068 7.7-5.842.784-2.032.687-4.8 1.158-6.962.331-1.56.503-5.558-2.501-7.015z"/><path fill="#fff" d="M103.288 74.712a5.553 5.553 0 01-1.643.538 1.585 1.585 0 01-1.472-.59c-.291-.419-.411-1.337.179-1.584a1.477 1.477 0 011.136.142 3.637 3.637 0 011.8 1.494zm-3.533 40.826l.216.523c-1.344.814-3.623 2.077-3.847 3.437-.59-.21-1.2.077-1.808.1-.53.017-1.06.03-1.6.03v-.135c-3.392-3.877-7.9-7.9-10.37-12.468-1.117-2.071-.733-4.549-1.725-6.663-.883-1.882-3.127-2.816-3.526-4.916a18.344 18.344 0 01-.185-5.146c.1-.02 1.565-.055 1.666-.052 2.872-.002 5.665.94 7.949 2.682a18.713 18.713 0 002.555 11.616c2.585 4.639 7.62 7.425 10.675 10.992zm-42.021 27.394v29.836H95.19v-29.836H57.734z"/><path fill="#def6f8" d="M94.249 125.577c-.02.2.071-.136-1.158 1.42-.336.425-.667.857-1 1.277-.271.342-.672.917-1.173.874-1.7-.146-3.574-1.933-5.774-2.913l-.03-.247a44.386 44.386 0 019.135-.411z"/><path fill="#fff" d="M102.915 137.829c.044-.471.231-1.39-.075-1.816-.194-.261-.523.426-.583.531-.254.441-1.77 2.951-2.151 1.367-.381-1.606.665-3.646 1.143-5.14a8.513 8.513 0 00.612-3.04 17.536 17.536 0 01-7.47-1.927 4.804 4.804 0 01-1.3-.807c-.336.426-.665.859-1 1.277-.269.344-.672.919-1.173.874-1.7-.14-3.573-1.932-5.774-2.913l-.03-.247c-5.672.681-8.647 1.236-15.143.5-.148-.02-.3-.048-.44-.082l-.052.209c0 .067-.172.919-.18.963a38.76 38.76 0 00-.373 3.34 32.28 32.28 0 00.3 8.359 7.711 7.711 0 001.039 3.137v.516H95.19v18.855s1.1 0 1.532.007v-.41c3.772-4.557 5.259-14.478 5.961-16.555l-.411-.246a.476.476 0 01-.328-.12c-.728-.624.44-2.068.971-6.632z"/><path fill="#0e2238" fill-rule="evenodd" d="M85.608 125.913a.5.5 0 00-.554-.421c-.612.073-1.192.145-1.748.214-4.599.57-7.54.935-13.273.286a3.677 3.677 0 01-.384-.072.501.501 0 00-.603.366l-.052.209a.478.478 0 00-.014.084l-.002.017-.018.103a24.453 24.453 0 01-.13.671l-.023.119-.002.009a39.242 39.242 0 00-.377 3.379 32.782 32.782 0 00.302 8.468 8.22 8.22 0 001.035 3.204v.381h1v-.516a.5.5 0 00-.07-.255 7.214 7.214 0 01-.976-2.964 31.784 31.784 0 01-.295-8.23v-.01a38.66 38.66 0 01.367-3.29l.002-.008.028-.141a85.936 85.936 0 00.103-.53c5.85.662 8.894.285 13.505-.287.446-.056.907-.113 1.386-.171.054.079.114.15.172.212.17.184.395.369.641.546.496.356 1.142.726 1.805 1.06.665.336 1.362.644 1.964.875.58.222 1.13.396 1.478.425.462.041.823-.207 1.055-.421.203-.187.38-.416.501-.574l.052-.066c.197-.246.396-.503.594-.757l.1-.128c.313.221.649.408 1.003.558a18.041 18.041 0 007.159 1.95 8.017 8.017 0 01-.554 2.377c-.004.011-.009.022-.012.034-.103.321-.234.67-.376 1.05l-.05.135c-.16.426-.328.885-.47 1.35-.28.916-.48 1.935-.257 2.873v.001c.057.238.15.47.316.643a.814.814 0 00.68.255 1.21 1.21 0 00.556-.224c.15-.104.292-.236.42-.371.353-.373.688-.87.901-1.21-.011.118-.025.23-.039.341-.013.105-.026.208-.036.315-.244 2.091-.623 3.511-.889 4.511l-.055.207c-.13.491-.241.926-.259 1.282-.021.387.063.771.402 1.062a.977.977 0 00.472.227c-.141.509-.305 1.226-.497 2.063l-.093.409a95.28 95.28 0 01-1.127 4.501c-.93 3.306-2.222 6.834-4.035 9.025a.497.497 0 00-.106.224l-.436-.002-.426-.001h-.178l-.001 1h.178l.425.001c.33.001.709.003.92.006a.5.5 0 00.509-.5v-.232c1.897-2.371 3.199-6.002 4.113-9.25a95.33 95.33 0 001.138-4.549l.089-.389c.256-1.116.446-1.946.595-2.385a.5.5 0 00-.217-.589l-.411-.246a.508.508 0 00-.26-.071l-.002-.001c-.024-.021-.064-.055-.054-.25.012-.232.09-.56.228-1.079l.055-.208c.269-1.009.663-2.489.916-4.656l.001-.011c.005-.053.014-.128.025-.217.025-.207.06-.488.07-.734.014-.344 0-.839-.262-1.203l-.005-.007a.63.63 0 00-.374-.247.628.628 0 00-.414.056 1.058 1.058 0 00-.355.318c-.076.101-.141.21-.188.293l-.06.11-.019.037-.006.011-.002.003c-.127.221-.544.911-.957 1.348a1.875 1.875 0 01-.252.228 1.405 1.405 0 01-.022-.077c-.158-.668-.026-1.472.242-2.35.131-.432.29-.865.45-1.291l.05-.136c.139-.369.276-.736.386-1.077a9.007 9.007 0 00.641-3.202.5.5 0 00-.485-.507 17.044 17.044 0 01-7.257-1.873l-.035-.016a4.32 4.32 0 01-1.165-.723.497.497 0 00-.72.068c-.145.183-.284.362-.422.539-.192.247-.38.49-.576.735l-.004.004-.066.085c-.125.161-.243.314-.378.438-.162.149-.252.165-.29.161h-.004c-.188-.015-.615-.137-1.204-.363a21.103 21.103 0 01-1.871-.833c-.64-.323-1.236-.666-1.672-.98a3.43 3.43 0 01-.492-.414c-.091-.098-.11-.146-.112-.147z" clip-rule="evenodd"/><path fill="#0e2238" d="M83.955 43.718c.321-.068.352 1.292.351 1.412a4.458 4.458 0 01-.986 2.756c-.223.277-.67.464-.837.777-.147.277.162.725.239.986a2.9 2.9 0 01-.022 1.771c-.481 1.381-1.708 1.275-2.772 1.852-.4.22-.393.87-.664 1.21a2.186 2.186 0 01-2.533.344l-.388.007a1.18 1.18 0 00.328-.5c.493-1.233.081-2.623.6-3.877.76-1.846 2.237-3.11 2.637-5.17a6.755 6.755 0 00-.022-2.958.478.478 0 00.059.06 5.137 5.137 0 003.973 1.111l.037.22z"/><path fill="#fff" d="M65.361 43.584l.269.09a2.539 2.539 0 003.354-.12 5.8 5.8 0 001.988-2.75c.1-.253.251-1.65.515-1.762.074-.031.6.838.657.912a4.749 4.749 0 004.871 1.374 5.025 5.025 0 011.6-.366c.44.06.911 1.016 1.27 1.367.226.972.233 1.982.022 2.958-.4 2.059-1.877 3.324-2.637 5.17-.517 1.254-.105 2.644-.6 3.877a1.175 1.175 0 01-.328.5c-.553.449-1.344-.393-2.085-.082-.679.286-.865 1.908-1.777 1.756-.739-.123-1.053-1.95-1.875-1.644-1.412.525.326 2.524-.307 3.183-.322.335-.919.44-1.307.687-.538.343-.97.968-1.606 1.106-1.251.27-3.053-.9-3.982-1.846l-.09.09a15.546 15.546 0 01-2.166 5.177l-.1-.06c-3.22 1.225-9.151-1.666-11.116-4.706l-.231.015a13.048 13.048 0 00-.038-.56 13.221 13.221 0 011-6.343l.575.239c1.7-1.091 3.323-2.291 4.909-3.541.385-.3 2.888-2.258 3.062-2.4.067-.053.172-.224.224-.224l.351-.007c-1.456-2.391.232-6.483 3.265-6.47 1.917.01 2.859 2.625 2.313 4.38z"/><path fill="#00bac7" d="M74.453 117.631l-.008.291a29.095 29.095 0 00-3.615.15l-.195-.045c.052-.203.086-.411.1-.62a1.06 1.06 0 00-.837-1.21c.177-.998.406-1.986.687-2.959.015-.052.284-.866.284-.978l.12-.045c.984 2.398 2.119 4.43 3.464 5.416z"/><path fill="#fff" d="M69.9 116.2a5.38 5.38 0 01-1.315-.493c-1.44-1.211-1.465-3.317-3.466-2.772a9.689 9.689 0 00-4.333 2.428c-1.735-1.881-2.683-3.794-6.962-3.675-.135.007-.471-.068-.471-.008l-.09-.06c-.196.308-.469.56-.791.732-1.817.917-3.686-.9-5.245-.851a2.863 2.863 0 00-1.9.956 17.56 17.56 0 00-1.48 1.5l.337.283a16.08 16.08 0 01-1.04 7.209c-.18.559-.558 2.133-1.321 2.256-.81.132-1.57-1.277-1.92-1.793a30.04 30.04 0 01-2.42-4.571 7.858 7.858 0 01-.837-2.062c-2.985 1.01-5.016.849-8.1 1.277-3.952.531-6.9 2.5-10.37 4.266a7.055 7.055 0 01-2.755.956 62.558 62.558 0 00-4.072 17.72c-.41 5.371.053 10.787-.5 16.15a10.184 10.184 0 01-1.15 4.204c-.59.986-1.754 2.017-1.777 3.227-.03 1.5 1.584 2.025 1.823 3.325.224 1.24-.254 2.5.635 3.585l.157 1.42c3.8-.8 9.547-1.95 16.688-3.175l-.082-.493c.785-4.252 3.993-8.653 9.33-11.109l.53.038c-.051-.09.778 2.144.845 2.218l.045.247a41.706 41.706 0 016.708-.441l.008-.6a78.817 78.817 0 002.1-8.7c.254-1.323.26-3 .874-4.228a11.22 11.22 0 012.45-2.6 9.518 9.518 0 002.98-5.334 15.924 15.924 0 00-1.374-7.784l.605-.09c1.293-.254 2.638-.134 3.937-.455 1.18-.292 2.316-1.009 3.54-1.061 1.478-.051 2.7 1.238 4.177.762a6.369 6.369 0 003.19-2.764 35.038 35.038 0 002.667-5.431c.482-.942.812-1.955.979-3a1.067 1.067 0 00-.834-1.209z"/><path fill="#def6f8" d="M63.456 132.242c.029 1.643.468 4.989-1.038 6.178-1.938 1.53-4.394.538-4.594-1.591-.06-.366-.051-2.4-.5-2.518-.275-.07-.508.785-.56.926a27.852 27.852 0 01-1.106 3.624c-.567 1.143-2.226.687-3.3.552 1.454-2.994.533-6.873-.718-9.965l.605-.09c1.293-.254 2.637-.134 3.937-.455 1.18-.292 2.316-1.014 3.54-1.061 1.294-.05 2.369.934 3.639.859.069 2.019.047.81.095 3.541z"/><path fill="#00bac7" d="M61.2 139.346c.068.1-.044.613-.06.74a14.508 14.508 0 01-.283 2.189v.657h-3.123v17.742h-.314a39.658 39.658 0 00-12.819-1.98l.008-.6a82.533 82.533 0 002.1-8.7c.107-1.441.4-2.862.874-4.228.851-1.714 3.12-2.412 4.774-5.753 1.075.135 2.734.591 3.3-.552.45-1.181.82-2.392 1.106-3.624.052-.141.285-1 .56-.926.45.115.441 2.152.5 2.518a2.578 2.578 0 002.562 2.338l.815.179zM61.05 63.2l.1.06c-.7 1.12-1.061 1.2-2.531 3.22l-.075-.045a22.837 22.837 0 01-6.918-2.884 23.933 23.933 0 01-1.807-1.6l-.322-.09c.25-1.1.32-2.232.21-3.354l.23-.015c1.963 3.043 7.894 5.934 11.114 4.708z"/><path fill="#fff" d="M58.54 66.436c.155.093.048-.059-.2.627-.762 2.108.294 4.966-.163 6.791l-.59-.105A22.715 22.715 0 0148.2 70.1c-.688-.44-1.263-1.083-1.92-1.516l-.314-.09c.09-.3.177-.59.269-.866.607-1.827 2.1-3.053 2.906-4.759.153-.32.273-.655.358-1l.322.09a23.87 23.87 0 001.807 1.6 22.835 22.835 0 006.913 2.877zm-.38 33.034a6.663 6.663 0 01.105-2.547c.166-1.15.14-2.318-.075-3.46-.217-1.007-1.285-3.368-2.54-3.7h-.142c-.386 2.584-1.433 5.708-3.5 7.3-.806.62-2.024.853-2.644 1.7-1 1.368-.418 3.501-1.457 4.745-.62.747-1.232-.5-1.479-.9-.762-1.248-1.995-2.652-3.474-1.457a2.883 2.883 0 00-.246 3.929c.336.419 1.292.807 1.083 1.442-1.046 3.13-3.511 7.194-6.581 8.531-.187.082-.381.157-.568.232a7.9 7.9 0 00.837 2.062 29.969 29.969 0 002.42 4.571c.351.516 1.11 1.925 1.92 1.793.763-.124 1.118-1.627 1.322-2.256a16.082 16.082 0 001.039-7.209l-.337-.283a17.26 17.26 0 011.48-1.5 2.858 2.858 0 011.9-.956c1.56-.048 3.435 1.764 5.245.851 1.148-.612 1.268-2.054 2.024-3 .209-.261.867-.739.807-1.12-.12-.74-1.711-1.726-1.136-2.607.157-.239.553-.06.755.015a3.225 3.225 0 001.838.418c.62-.179.7-.994 1.023-1.457.642-.911 2.137-1.165 2.577-2.2.458-1.054-1.824-1.606-2.196-2.936z"/><path fill="#00bac7" d="M57.585 73.75l.59.104c-.136.82-.323 1.631-.56 2.428l-.426-.12a20.02 20.02 0 01-8.83-3.332 13.807 13.807 0 01-2.682-2.06l-.269-.06c.179-.785.359-1.533.553-2.22l.314.09c.657.433 1.232 1.076 1.92 1.516a22.716 22.716 0 009.39 3.653z"/><path fill="#fff" d="M57.189 76.162l.426.12c-.591 2.091-1.45 4.235-2.256 6.29-.736-.273-6.84-1.773-10.825-5-.1-.084-.231-.4-.291-.276l-.292-.082c.576-2.13 1-4.445 1.457-6.507l.269.06a13.788 13.788 0 002.682 2.061 20.02 20.02 0 008.83 3.334z"/><path fill="#def6f8" d="M55.284 47.3c-2.264-1.927-3.683.859-6.006.769-1.046-.044-3.96-.523-4.684.523a2.6 2.6 0 00-.284 1.4c-.261.18-1-.1-1.412-.052-7.715.914-14.255.372-18.235 4.146-4.751 4.505-4.893 12.206-6.514 18.13-2.26 8.45-5.66 10.576-6.932 14.717-.867 2.854.918 5 1.4 7.694.867 4.878-.613 9.592 2.95 13.746l.733.239c1.083-3.934 5.467-4.523 7.732-7.635 3.212-4.437 2.614-10.473 6.08-14.828 2.862-3.6 7.635-4.811 12.065-4.154l.052-.306c2.169-3.761 2.6-9.761 4-14.06.62-1.822 2.09-3.055 2.906-4.758a9.7 9.7 0 00.53-4.915c-.2-2.165.144-4.345 1-6.343l.575.239a56.087 56.087 0 004.909-3.541 5.241 5.241 0 00-.865-1.011z"/><path fill="#fff" d="M54.619 84.5c-.157.418-.306.83-.441 1.234-1.4-.717-3.22-.447-4.594-.934-2.526-.895-3.693-2.25-7.4-2.81l.052-.305c.413-.716.758-1.47 1.031-2.25l.277.106c.007.187.4.434.515.53.59.49 1.22.93 1.883 1.315 5.568 3.295 8.282 2.982 8.677 3.115z"/><path fill="#0e2238" d="M153.943 101.459c-.283.045-.352.052-.808.151-.733.159-.578 1.775 1.444 1.257.646-.209 1.007-.393 1.063-.765a.614.614 0 00-.235-.539 2.084 2.084 0 00-1.464-.104zm1.748-6.424c-.1-.242-.106-.972-.691-.914a.535.535 0 00-.406.312.53.53 0 00.037.51c.037.167.086.332.144.492a14.86 14.86 0 002.941 4.165.494.494 0 00.362.176.506.506 0 00.374-.149.502.502 0 00-.036-.736 14.089 14.089 0 01-2.725-3.855zm3.44 2.058c-.873-.948-.964-1.032-1.477-1.67-.131-.171-.4-.53-.8-.285a.517.517 0 00-.178.663c.053.106.052.07.248.316a15.12 15.12 0 005.466 4.63.503.503 0 00.664-.245.504.504 0 00-.245-.664 11.603 11.603 0 01-3.678-2.745zm-18.115 26.446c-.32-.387-.618-.793-.892-1.214a.503.503 0 00-.402-.487.495.495 0 00-.331.048.494.494 0 00-.227.246c-.166.386.089.777.89 1.8a28.91 28.91 0 003.986 4.488.5.5 0 00.669-.743 25.745 25.745 0 01-3.693-4.138zm7.994 3.341c-1.465-.469-4.191-1.344-5.3-2.813a.502.502 0 00-.7-.1.502.502 0 00-.1.7c1.3 1.723 4.219 2.66 5.789 3.163a.5.5 0 00.311-.95zm11.071 29.36a.5.5 0 00.9-.427 16.676 16.676 0 01-.775-1.949c-.045-.139-.3-.983-.308-1.087a.505.505 0 00-.222-.317.491.491 0 00-.382-.064.506.506 0 00-.379.414.484.484 0 00.01.197 17.084 17.084 0 001.156 3.233zm4.236.596a.503.503 0 00.692-.146.501.501 0 00-.146-.692 13.773 13.773 0 01-2.915-2.6 10.27 10.27 0 01-.679-.809.502.502 0 00-.722-.387.501.501 0 00-.222.224c-.2.394.094.736.854 1.611a15.177 15.177 0 003.138 2.799zm7.704-31.978c2.573-.708 4.915-1.1 7.431-1.544a.507.507 0 00.328-.204.498.498 0 00-.123-.701.498.498 0 00-.377-.08 75.21 75.21 0 00-7.52 1.563 6.74 6.74 0 00-2.575.825 12.146 12.146 0 00-3.8-2.489 1.02 1.02 0 00-.243-.056.502.502 0 00-.729.088.548.548 0 00.125.761.931.931 0 00.487.14 14.103 14.103 0 017.206 7.663.499.499 0 00.916-.015.5.5 0 00.004-.376 17.358 17.358 0 00-3.27-5.023 10.77 10.77 0 012.14-.552zM159.223 76.22a.517.517 0 00.517-.492c.098-.121.205-.234.322-.338.062.044.125.084.186.119.571.618.564.855.935.855a.503.503 0 00.499-.538.499.499 0 00-.093-.254 9.161 9.161 0 00-.6-.73.898.898 0 00-.1-.084c.351-.2.732-.338 1.129-.411a.492.492 0 00.336-.201.491.491 0 00.088-.382.504.504 0 00-.598-.402 4.554 4.554 0 00-2.325 1.155 2.344 2.344 0 00-.7.86.503.503 0 00.118.774.51.51 0 00.286.069zm-6.172-13.658c2.32.495 4.721.476 7.033-.055a.497.497 0 00.404-.581.499.499 0 00-.581-.404 15.536 15.536 0 01-6.579.079.499.499 0 10-.277.96zm-31.983 37.627c.216 0 .738.47 1.056.752a14.22 14.22 0 012.989 3.725.5.5 0 00.873-.487 15.483 15.483 0 00-3.338-4.109c-.453-.4-1.136-1.012-1.8-.856a.503.503 0 00-.384.405.497.497 0 00.228.506.493.493 0 00.376.064zm30.041-31.444a6.246 6.246 0 013.115 2.147.495.495 0 00.539.175.501.501 0 00.231-.812 7.176 7.176 0 00-3.662-2.486 1.385 1.385 0 00-.468.008c-.777-.27-1.115 1.302.245.968zm-.741 4.347c1.3-.532 2.736.84 2.9 1a.5.5 0 00.7-.71c-.339-.336-2.123-1.968-3.976-1.215a.5.5 0 10.377.927l-.001-.002zm-3.98-.047a7.879 7.879 0 00-1.865 2.482 1.094 1.094 0 00.173 1.038c.512.643 1.757.678 2.579.626a.499.499 0 00-.063-.998c-.419.027-1.76 0-1.76-.307a6.39 6.39 0 011.537-2.015c.641-.708.433-.509.625-.715.192-.206.431-.455.292-.8a.52.52 0 00-.839-.195.518.518 0 00-.161.29c-.191.2-.148.178-.518.594zm.875 5.762a.51.51 0 00-.424.884c.47.683 1.482 2.21 2.221 2.5 1.758.669 3.095-1.968 1.841-3.056a3.48 3.48 0 00-2.51-.478 5.07 5.07 0 00-1.128.15zm2.983 1.08c.423.366-.131 1.636-.827 1.368-.164-.064-.532-.4-1.358-1.558.649-.072 1.761-.176 2.185.19zm-28.701 61.65c.067.209.166.406.293.585a42.19 42.19 0 005.134 4.939.502.502 0 00.81-.233.491.491 0 00-.044-.388.505.505 0 00-.13-.15 50.293 50.293 0 01-3.862-3.537c-1.213-1.281-1.162-1.306-1.236-1.5a1.021 1.021 0 00-.551-.691.611.611 0 00-.529.063.49.49 0 00-.243.494.499.499 0 00.358.418zm-1.884 2.963a27.869 27.869 0 004.29 1.842.505.505 0 00.492-.416.502.502 0 00-.325-.555c-3.945-1.4-4.351-2.342-4.823-1.692a.543.543 0 00-.039.509.542.542 0 00.405.312zm-26.398 25.633l-33.46-.5a.49.49 0 00-.357.14.5.5 0 00.152.819c.06.026.125.04.19.041l33.468.5a.5.5 0 00.007-1zm12.673-12.951c1.924.365 6.006 1.634 7.932 2.143.43.12.875.177 1.321.172a5.249 5.249 0 00-.158 2.888.498.498 0 00.606.365.498.498 0 00.365-.607 4.515 4.515 0 01.163-2.456c.072-.173.122-.172.157-.348 3.105-.765.459-.473 12.3-4.173a.498.498 0 00.327-.627.5.5 0 00-.627-.327c-12.014 3.751-9.457 3.548-12.593 4.248-1.451.207-2.253-.389-7.171-1.669-2.331-.631-2.291-.534-2.687-.652a.522.522 0 00-.664.4.5.5 0 00.345.552c.126.039.254.069.384.091z"/><path fill="#0e2238" d="M124.038 157.813a59.82 59.82 0 00-7.111 2.78.502.502 0 00.033.933.514.514 0 00.389-.027 58.754 58.754 0 016.993-2.733.5.5 0 00.347-.633.494.494 0 00-.255-.298.508.508 0 00-.392-.022h-.004zm3.426-1.413c-.469.161-.937.346-1.317.519-.023.006-.582.156-.717.49a.504.504 0 00.177.615.497.497 0 00.637-.063 25.217 25.217 0 011.545-.616.5.5 0 00-.325-.945zm-17.624 3.781a.498.498 0 00.549-.125.493.493 0 00.134-.365.514.514 0 00-.169-.35.498.498 0 00-.171-.099c-1.4-.511-3.734-1.181-4.111-1.26a.493.493 0 00-.539.197.505.505 0 00-.08.388.507.507 0 00.229.324.494.494 0 00.19.069c.288.061 2.604.722 3.968 1.221zm22.479 1.128c-1.792.1-10.537 1.39-11.346 1.241a.518.518 0 00-.385.07.486.486 0 00-.218.325.51.51 0 00.23.519.49.49 0 00.188.068c1.116.21 9.486-1.1 11.589-1.225a.496.496 0 00.471-.529.504.504 0 00-.529-.471v.002zm-21.438 2.451c-3.271-.262-7.187-.7-8.113-.74a.086.086 0 01-.039 0 .509.509 0 00-.551.137.506.506 0 00-.068.563.486.486 0 00.303.248c.114.041.234.06.355.055 1.027.066 7.7.716 8.091.74.243-.013.483.058.68.2.168.225.02 1.019 0 1.394a.51.51 0 00.124.363.506.506 0 00.538.143.502.502 0 00.338-.443 2.903 2.903 0 00-.259-2.126 1.972 1.972 0 00-1.399-.534zm8.213 1.252c-1.212.166-3.547.646-4.787.79a.51.51 0 00-.352.175.494.494 0 00-.118.375.514.514 0 00.19.344.506.506 0 00.38.1c1.321-.156 3.615-.629 4.819-.793a.48.48 0 00.33-.193.502.502 0 00.034-.554.502.502 0 00-.5-.244h.004zm7.55-.896c-.655.093-4.805.745-4.805.745-.3.035-.959-.106-1.046.451a.539.539 0 00.207.483.534.534 0 00.52.074c.1 0 .308 0 .448-.017 0 0 4.169-.654 4.818-.746a.496.496 0 00.424-.566.502.502 0 00-.566-.424z"/><path fill="#0e2238" d="M108.454 165.673c-.782.01-2.076-.251-2.96-.32a8.33 8.33 0 01-1.07-.1c-.191-.033-.637-.106-.763.33a.534.534 0 00.315.617c.155.065.183.023.284.039.383.059.769.096 1.157.111.884.068 2.116.34 3.049.322a.502.502 0 00.494-.506.5.5 0 00-.506-.494v.001zm24.782 2.085a.498.498 0 00-.684.178 4.147 4.147 0 00-.332 3.5.49.49 0 00.254.296.495.495 0 00.677-.24.5.5 0 00.011-.39 3.16 3.16 0 01.252-2.658.494.494 0 00-.032-.556.504.504 0 00-.146-.13zm-2.267-.489c-5.216.748-18.407 3.471-19.346 3.432-2.2-.088-9.623-1.137-12.262-1.4a.492.492 0 00-.388.109.513.513 0 00-.181.361.54.54 0 00.488.526c2.559.254 8.984 1.164 11.753 1.366a20.036 20.036 0 00-.154 2.175.508.508 0 00.128.361.497.497 0 00.54.136.503.503 0 00.332-.446c-.001-.735.059-1.468.181-2.192.261-.012 17.166-3.173 19.052-3.442a.5.5 0 00-.142-.99l-.001.004z"/><path fill="#0e2238" d="M184.808 184.414c-12.42-9.062-29.753-14.949-44.805-18.623a125.82 125.82 0 00-5.219-1.149 3.292 3.292 0 00-.241-4.2 24.747 24.747 0 015.388-.749c.429.08.864.117 1.3.111 4.889-.179 5.76.3 6.18.11a11.4 11.4 0 003.741 1.139 72.838 72.838 0 0014.05 2.239c6.984.279 8.5-3.985 8.87-11.057.323-5.9-.408-11.789-.052-17.62a.498.498 0 00-.829-.402.507.507 0 00-.169.342c-.534 8.741 1.521 20.989-1.921 25.656-1.69 2.3-4.682 2.186-7.478 1.994a63.32 63.32 0 01-11.089-1.891c-1.373-.352-4.911-.631-5.382-2.1a4.092 4.092 0 01-.175-1.338 1.99 1.99 0 01.509-1.5c.723-.682 2.217-.647 3.663-.618a9.323 9.323 0 003.186-.276c1.405-.5 1.451-2.149 2.33-2.511a4.713 4.713 0 011.035 0c.934.063 1.668.109 1.958-.4.483-.854-.547-2.411-.805-3.073a10.336 10.336 0 01-.788-5.5 17.257 17.257 0 011.578-4.526c1.8-4.015 1.9-4.963 1.91-9.763a.501.501 0 00-1 0v.794a16.691 16.691 0 00-4.939-.12 34.19 34.19 0 01-5.536.6 34.529 34.529 0 01-11.022-1.956c-.707-.222-5.333-1.693-5.333-1.693-4.063-1.147-5.6 1.2-6.335-2.1-.4-1.782-1.465-5.447.284-5.907 1.518-.378 3.221.526 5 .461a28.627 28.627 0 004.36-.747c4.082-.793 10.644 1.531 16.253 1.936a18.061 18.061 0 005.921-.773 16.3 16.3 0 013.561-.832c.161.415.313.849.453 1.3a3.85 3.85 0 00-2.174 2.349.497.497 0 00.319.635.501.501 0 00.632-.326c.135-.429.376-.816.7-1.128.405-.364.874-.65 1.383-.843a20.216 20.216 0 014.107-.941c2.414-.425 11.43-2.044 13.709-.931 1.9.918 1.7 1.5 2.056 2.478a.499.499 0 00.641.299.504.504 0 00.299-.642c-.382-1.047-.276-1.929-2.559-3.034-1.2-.586-3.792-.631-7.864-.145l.142-.279c1.824-3.6 1.915-2.753 2.257-3.17.115.063.234.118.355.167a2.593 2.593 0 002.854-.626 4.872 4.872 0 00.96-3.837l-.086-1.776a19.468 19.468 0 013.134-1.6.498.498 0 00-.024-.914.5.5 0 00-.376-.002c-.706.309-1.346.607-1.965.924a12.203 12.203 0 011.478-2.98.5.5 0 10-.747-.665c-.672.929-1.2 1.954-1.568 3.04 0-.3-.023-.607-.01-.905a22.688 22.688 0 00-.685-7.153c-1.321-4.707-5.219-8.232-9.47-8.837-2.866-.407-5.179.73-7.923.838a28.81 28.81 0 00.926-8.462c-.032-.56-.133-1.45-.227-2.27-.174-1.52-.121-1.463-.276-1.639.32-.619.536-1.285.641-1.974.347-2.4-1.334-5.434-3.582-4.688a.492.492 0 00-.2-.11 4.598 4.598 0 01-3.281-3.244c-.089-.45.141-1.914-.479-2.428-.436-.373-.984-.065-1.249.081a6.306 6.306 0 01-2.023.758c-2.192.2-4.475-1.845-4.6-3.587a.497.497 0 00-.34-.44.501.501 0 00-.657.511 5.17 5.17 0 002.633 3.74c-2.244-.062-3.8-1.94-4.77-3.976a4.506 4.506 0 01-.625-1.84.502.502 0 00-.552-.453.499.499 0 00-.442.56c.082.776.333 1.524.734 2.193.093.2.065.058-.1.218-1.369 1.33-1.481 3.831-1.527 5.752-.026.02-.054.035-.079.056a.5.5 0 00.057.812 5.947 5.947 0 01-.724 3.04A6.835 6.835 0 00141.3 75c.008.771.174 1.532.487 2.237-5.633 1.58-8.256 6.886-10.8 9.1-1.841 1.6-4.288 2.4-6.073 4.285-1.808 1.918-2.348 4.585-4.009 6.326-1.978 2.08-4.845 2.7-6.771 5.436-.918 1.332-.68 2 .159 2.553a46.958 46.958 0 01-5.539 4.57c.178-1.807.43-3.6.681-5.288.342-2.3.288-2.038.413-2.337.138-.33.31-.741.057-1.037a.595.595 0 00-.534-.249.496.496 0 00-.413.272.505.505 0 00.023.494 3.218 3.218 0 00-.227.653c-.169 1.019-1.116 7.517-1.072 8.247a376.81 376.81 0 01-5.174 3.508c0-.392.029-2.313.093-2.757a11.448 11.448 0 003.217-5.266c.733-2.725.065-6.524-1.113-9.124a.5.5 0 10-.911.413c1.1 2.421 1.72 6 1.059 8.451a10.51 10.51 0 01-2.493 4.366c-1.349 1.449-2.873 1.992-3.173 4.342-3.4-3.485-7.391-5.815-9.665-9.9a18.399 18.399 0 01-2.583-10.357c.285.268.553.552.805.85a.5.5 0 10.769-.64 12.675 12.675 0 00-7.115-4.1 15.968 15.968 0 00-3.669-.3 1.232 1.232 0 00-.272.057.52.52 0 00-.377.931c.105.077.3.176.708.01a14.992 14.992 0 013.416.283A11.954 11.954 0 0186 93.171a19.078 19.078 0 002.642 11.614c2.609 4.685 7.566 7.385 10.716 11.061-1.314.787-3.034 1.83-3.576 3.086a9.818 9.818 0 00-1.481.163c-1.639.075-3.28.05-4.916-.073-4.67-.423-9.543-1.455-14.48-1.581-.227-.548-1.445-.523-3.457-5.417-1.757-4.3-3.075-9.937-4.264-12.7 1.168-5.238 2.547-10.775 4.464-17.926a.5.5 0 00-.966-.259c-2.784 10.385-5.462 21.209-7.2 31.817-.962.436-1.862.998-2.676 1.67a8.73 8.73 0 00-3.406-2.883 8.815 8.815 0 00-3.33-.562 5.297 5.297 0 011.01-1.73c1-.969.914-1.39.032-2.473-.331-.407-.575-.729-.572-.955a4.15 4.15 0 002.25.524.566.566 0 00.1-.018c.88-.256 1.03-1.273 1.293-1.65.557-.791 2.107-1.068 2.626-2.284.657-1.5-1.863-2.173-2.16-3.2-.12-.8-.084-1.618.106-2.405a10.991 10.991 0 00-.082-3.63c-.192-.9-1.282-3.653-2.9-4.077a.677.677 0 00-.764.41c-.363 2.436-1.352 5.468-3.313 6.976-.765.587-2.026.82-2.743 1.8-1.092 1.49-.525 3.566-1.442 4.775-.144-.047-.353-.383-.664-.9-1.085-1.807-2.6-2.9-4.244-1.559a3.392 3.392 0 00-.293 4.606c.275.341 1.053.805 1 .97-1.033 3.091-3.447 6.985-6.308 8.231-.12.053-.246.1-.368.149a.462.462 0 00-.269.1 16.957 16.957 0 01-3.8.793.497.497 0 00-.35.193.482.482 0 00-.091.388.454.454 0 00-.013.072c.154 6.162.708 10.356.759 11.384.075 1.554.215 2.984 1.065 3.406.766.395 1.363-.381 1.822-1.1a25.129 25.129 0 012.635-3.5c.222-.182.47-.33.737-.439a.514.514 0 00.5.319c.658-.035.593-1.051-.055-1.293-.77-.289-1.877.692-1.9.717a22.876 22.876 0 00-2.827 3.764c-.321.483-.472.614-.46.646-.268-.132-.442-.994-.519-2.561-.067-1.386-.576-4.858-.746-11.049a18.04 18.04 0 003.185-.673 7.97 7.97 0 00.7 1.637c.73 1.71 1.61 3.351 2.629 4.906.542.846 1.258 1.923 2.244 1.758.965-.161 1.369-1.406 1.645-2.334l.079-.258a16.761 16.761 0 001.059-7.443.477.477 0 00-.12-.241c.357-.384.728-.761 1.143-1.137.299-.34.692-.584 1.13-.7-.002.035 0 .07.006.105a22.4 22.4 0 01-.386 12.378.822.822 0 01-.16.323c-.052 0-.269-.038-.807-.644a4.787 4.787 0 00-.736-.689 1.2 1.2 0 00-.655-.128.5.5 0 00-.261.893.52.52 0 00.424.107c.549.455 1.167 1.459 2.033 1.459.577 0 .923-.449 1.108-1a22.804 22.804 0 001.073-5.633 22.476 22.476 0 00-.632-7.167c1.521.37 3.907 2.047 5.605.089a.479.479 0 00.125-.014 9.464 9.464 0 013.488.515c2.149.82 2.865 3.174 5.143 4.434-.583.451-1.194.908-1.879 1.393-.382.273-2.1.974-2.295 1.638a.52.52 0 00.484.683.444.444 0 00.442-.325 18.07 18.07 0 011.949-1.181 38.034 38.034 0 004.931-4.033.501.501 0 00-.344-.862.511.511 0 00-.356.148 32.33 32.33 0 01-2.125 1.891.481.481 0 00-.126-.1 5.433 5.433 0 01-1.378-1.018 10.015 10.015 0 013.75-1.938 1.33 1.33 0 011.565.764 5.193 5.193 0 001.54 1.969c.508.264 1.961.736 1.884 1.227a9.839 9.839 0 01-.946 2.855 34.664 34.664 0 01-2.635 5.364 5.257 5.257 0 01-3.323 2.61c-1.154.056-2.227-.925-3.63-.86-1.356.058-2.466.786-3.64 1.075-1.22.3-3.652.246-4.085.522a5.47 5.47 0 00-1.262-2.195.504.504 0 00-.693.082.5.5 0 00.064.695c.433.517.757 1.116.951 1.761 2.27 5.807 2.46 9.616-2.072 13.582-3.663 3.209-1.176 2.992-4.833 15.088a.498.498 0 000 .248c-.863.006-1.684.025-2.473.064 1.286-2.032.622-5.37-1.147-6.262-.863-.432-1.862-.3-2.2-.95-1.423-2.726.159-7.189-2.671-12.717a5.67 5.67 0 00-1.553-1.881c-1.535-1.231-1.837.414-1.045.533a4.386 4.386 0 011.915 2.226 17.188 17.188 0 011.553 6.476c.1 1.916.078 4.223.915 5.827.6 1.143 1.908 1.014 2.638 1.379 1.412.713 1.827 4.137.286 5.372a.508.508 0 00-.078.094 35.28 35.28 0 00-2.01.223 50.483 50.483 0 01-.714-1.877 5.077 5.077 0 011.924-.285.505.505 0 00.497-.667.503.503 0 00-.446-.332 6.003 6.003 0 00-3.252.755c-5.532 2.543-8.806 7.093-9.613 11.472a.454.454 0 000 .177c-.541.093-1.076.189-1.614.284a.469.469 0 00-.523-.033c-.18-.032-.611-.616-.77-1.046a6.836 6.836 0 01-.177-3.157c.255-2.662.108-3.161-1.155-4.32a2.523 2.523 0 01-.908-1.208 3.508 3.508 0 01.827-2.575 11.095 11.095 0 015.555-3.678.509.509 0 00.307-.235.496.496 0 00-.042-.559.497.497 0 00-.534-.169 11.749 11.749 0 00-5.216 3.07 16.643 16.643 0 00-1.578-2.6.5.5 0 10-.844.535c.116.185.261.393.417.617a5.473 5.473 0 011.218 2.321c-.016.021-.035.04-.052.061a4.544 4.544 0 00-1.045 3.366c.329 1.548 1.983 1.973 2.114 3.106.239 2.089-.885 4.727.767 6.794-5.785 1.039-13.416 2.544-18.061 3.644a.502.502 0 00-.38.544.503.503 0 00.495.442 480.555 480.555 0 0152.286-8.561c.079-.001.158-.008.236-.02a.49.49 0 00.34-.191.5.5 0 00-.484-.798c-.474.073-12.706 1.216-30.153 4.194a15.185 15.185 0 017.956-10.047c.3-.155.63-.324 1-.5.179.556.388 1.101.627 1.634a3.212 3.212 0 00-.691.16c-.318.1-.862.269-1.034.308a.503.503 0 00-.442.36.502.502 0 00.183.54c.228.171.231.173 1.588-.251a7.72 7.72 0 011.106-.23 41.401 41.401 0 016.637-.435c4.35-.029 8.676.64 12.814 1.98a.5.5 0 00.156-.975 40.222 40.222 0 00-12.478-2 79.483 79.483 0 002.1-8.711 17.09 17.09 0 01.831-4.1c.746-1.512 2.862-2.188 4.6-5.429 1.414.215 2.853.386 3.5-.919a27.622 27.622 0 001.09-3.556c.083.741.075 1.2.11 1.392.232 2.46 3.107 3.751 5.401 1.942 1.471-1.162 1.36-3.773 1.268-5.7-.047-.967-.091-3.273-.114-3.869.035-.2-.091-.086.205-.183a6.872 6.872 0 003.193-2.622 8.74 8.74 0 012.14.447 46.54 46.54 0 007.6.416c2.507-.089 5.088-.443 7.739-.772.188.236.4.159 1.576.892 1.28.692 2.954 2.086 4.548 2.217.827.07 1.283-.635 2.308-1.952.301.232.634.42.988.558a17.462 17.462 0 007.155 1.933 12.779 12.779 0 01-.927 3.483c-.519 1.389-1.109 2.963-.778 4.36.161.666.52.853.794.893.595.087 1.279-.5 2.079-1.8-.472 5.167-2 6.756-.881 7.715.714.615 1.618-.03 2.218-.755a5.277 5.277 0 001.244-.312c.303-.192.577-.426.815-.694h.018c.6-.06 1.164-.314 1.607-.722 2.926-2.727 1.841-7.614 1.891-13.352.827.714 2.254 1.888 3.036 1.135a.9.9 0 00.256-.761.599.599 0 00.246-.2 2.872 2.872 0 00.014-2.5 31.65 31.65 0 015.41-1.834c1.507-.338.339-.138-1.946 1.224-.605.454-.844.92-.712 1.389.338 1.186 1.964.863 3.112.392a17.099 17.099 0 012.532-1.027c1.239-.29 4.009.247 5.7-.687.741 1.036 1.716 1.037 2.965.927a8.494 8.494 0 013.7.328c-.5.3-1.237.855-1.483 1-2.933 1.658-6.17 3.332-10.624 5.331-3.349 1.5-8.41 3.778-10.03 8.517-1.052 3.077-.474 6.8 1.68 11.069-4.357.962-7.893 1.76-8.461 1.806a1.938 1.938 0 00-1.292.425 3.522 3.522 0 00-.887 2.365 1.945 1.945 0 00.668 1.466c.665.414 1.357.782 2.073 1.1-.288.086.483-.138-3.145.909a536.654 536.654 0 00-6.789-.074.5.5 0 000 1c.43 0 2.907.028 3.712.037-.921.494-.605 1.431-.228 2.4.325.841.3.773.166 1.454-.159.8-.338 1.708.378 1.947 1.8.561 10.928.772 12.047.708a48.075 48.075 0 003.378-.286c.834-.1 17.344-2.688 17.444-2.707.46-.082.909-.218 1.336-.407 15.583 3.008 36.991 9.879 50.563 19.785 6.962 5.071 9.464 9.145 9.728 9.845a.5.5 0 00.892.238.545.545 0 00.1-.393c-.082-.472-2.312-4.807-10.145-10.513zM52.242 111.9c-1.471.74-3.133-.786-4.82-.891a3.167 3.167 0 00-2.438 1.07 18.74 18.74 0 00-2.826 3.21.5.5 0 10.823.569c.23-.336.5-.646.755-.964a17.958 17.958 0 01-1.162 6.682c-.132.437-.436 1.46-.85 1.634-.362.062-1.021-.967-1.237-1.308a30.239 30.239 0 01-2.58-4.817 7.383 7.383 0 01-.652-1.522c3.3-1.37 5.877-5.513 7.006-8.894.337-1.018-.892-1.569-1.171-1.917-1.286-1.562-.063-3.757 1.155-3.551.15.026.863.136 1.827 1.785.26.445.693 1.192 1.348 1.246a1.015 1.015 0 00.867-.41 4.857 4.857 0 00.86-2.624c.272-2.145.594-2.4 1.991-3.072a5.599 5.599 0 002.05-1.476 12.648 12.648 0 002.693-6.229c.9.848 1.531 1.94 1.819 3.141.201 1.07.228 2.166.079 3.245a7.154 7.154 0 00-.1 2.8c.284 1.016 1.228 1.512 1.843 2.037.416.359.416.468.375.56-.276.44-.677.789-1.152 1a3.173 3.173 0 00-1.69 1.731c-.142.339-.244.557-.4.629a3.07 3.07 0 01-1.613-.412c-.256-.1-.932-.358-1.3.2-.8 1.225.944 2.452 1.061 2.9-.044.158-.548.592-.7.786-.774.962-.94 2.371-1.861 2.862zm9.86 26.13c-1.639 1.295-3.618.463-3.785-1.285-.012-.073-.02-.224-.031-.414-.084-1.4-.187-2.333-.845-2.508-.7-.17-.985.739-1.125 1.174a31.2 31.2 0 01-1.106 3.639c-.29.582-1.11.528-2.161.371a7.72 7.72 0 00.46-1.71 15.555 15.555 0 00-1.184-7.449c.58-.106 1.165-.168 1.754-.185a9.14 9.14 0 003.644-.764c1.919-.753 2.273-.687 3.627-.159.487.214 1 .363 1.527.443.01 4.207.654 7.717-.777 8.849l.002-.002zm70.505-20.23c-1.693.047-3.342-.894-5.182-.432a2.205 2.205 0 00-1.464 1.276c-1.643-.651-3.255-.368-4.742-.67-1.076-.217-2.045-.646-3.263-.89-1.246-.234-3.542.534-3.684 1.991a5.178 5.178 0 00-2.547 2.22 1.361 1.361 0 00-.147.424c-.032-.033-.063-.077-.095-.107a5.779 5.779 0 00-1.946-1.373.485.485 0 00-.31-.019c.323-1.444.309-2.893.777-3.563 1.144-1.652 7.817-6.2 9.218-6.857.638 1.148 1.375 2.3 2.67 2.075 1.572-.272 2.682-1.962 3.61-3.049 1.013-1.171 2.385-2.09 3.457-3.314.962-1.1 1.637-2.467 2.616-3.46 2.105-2.13 4.842-2.769 7.947-4.1a43.382 43.382 0 00.235 4.876c.393 4.638.347 5.345-.273 7.727a11.441 11.441 0 00-.519 3.326c.164 1.056.484 2.081.951 3.042-3.27-.233-3.23.493-7.309.877zm18.767.977c-.168-1.951-.2-3.942-.231-5.868.034-.991 0-1.984-.1-2.971a17.697 17.697 0 01-.143-1.811c.178.014.354.046.526.095-.082.564-.464 1.33-.267 1.876a1.312 1.312 0 001.4.831c.146-.021.289-.059.433-.089a.44.44 0 00.014.109c.266.632.519.694 1.184 1.7.63.913.357 2.5 1.64 3.387a2.502 2.502 0 002.334.173c.034.728.145 1.45.331 2.155a15.327 15.327 0 01-7.121.408v.005zm8.078-.665a8.328 8.328 0 01-.259-1.479 4.29 4.29 0 01-.04-.793c1.148-.421 2.115-.56 3.176 1.545-.98.147-1.944.388-2.877.722v.005zm8.588.326a21.094 21.094 0 00-3.895.863c-2.628-8.34-5.93-2.845-7.759-4.088a2.399 2.399 0 01-.772-1.544 5.119 5.119 0 00-1.424-2.672 1.725 1.725 0 01-.2-.286.542.542 0 00-.058-.133 7.27 7.27 0 001.948-1.022.5.5 0 10-.6-.8 6.372 6.372 0 01-2.86 1.181.316.316 0 01-.186-.034.318.318 0 01-.135-.132c-.063-.466.813-1.847-.092-2.393a3.699 3.699 0 00-1.481-.269c-1.081-.055-1.482-.134-1.573-.617-.063-.33.75-.99 1.046-1.369a9.96 9.96 0 002.4-5.27c3.681 1.66 6.255.787 7.235 2.511.98 1.724-.175 3.9-1.281 5.4-.448.52-.845 1.083-1.184 1.679a1.656 1.656 0 00-.274 1.271 1.651 1.651 0 00.726 1.078c.37.175 1.313.388 3.131-.481.054-.025.152-.074.235-.106.109.466.021 1.4.12 1.843 1.023 4.269 6.585 5.369 10.894 3.552.099.388.235.766.407 1.127-1.555.218-3.07.473-4.368.706v.005zm5.448-1.265a.49.49 0 00-.026.407h-.032c-.12-.3-.449-1.1-.524-1.412a14.137 14.137 0 002.009-1.592c-.621.95-1.215 2.206-1.427 2.592v.005zm-2.91-27.348c4.473.637 7.639 4.525 8.647 8.117.578 2.231.797 4.54.649 6.84-.172 4 .812 6.684-.52 8.072a1.6 1.6 0 01-1.772.382c-.429-.158-1-.675-1.787-.381a6.819 6.819 0 00-2.047 1.412 6.18 6.18 0 01-1.673 1.218c-3.548 1.848-9.079 1.145-9.993-2.666-.135-.6.4-3.457-1.767-2.41a3.782 3.782 0 01-2.264.476.215.215 0 01-.13-.136 1.146 1.146 0 01.118-.815 9.88 9.88 0 011.1-1.549c1.871-2.533 2.345-4.785 1.37-6.513-.8-1.414-2.453-1.663-4.035-1.892a13.443 13.443 0 01-4.252-1.31 4.42 4.42 0 01-1.38-1.272c-1.477-2.14.188-4.384.736-4.99a9.235 9.235 0 017.047-2.509c1.176.347 2.376.607 3.59.78 2.185.24 5.495-1.267 8.363-.859v.005zm-18.63-.2c-.277-1.135-.461-2.1-.762-3.11a11.25 11.25 0 007.106-4.554c.386-.72.708-1.472.961-2.249A58.428 58.428 0 01156.382 89a12.685 12.685 0 00-3.41 1.1 5.367 5.367 0 00-.937.6 2.35 2.35 0 00-.087-1.076v.001zm-6.859-5.854a5.076 5.076 0 005.095 2.868c.238.77.425 1.6.607 2.41.2.904.324 1.281.251 1.39-.531.283-1.874.21-2.62.485-.461.162-2.161 1.2-2.424.94a4.963 4.963 0 01-.689-2.312 24.018 24.018 0 01-.22-5.782v.001zm17.335-5.4c.1.951.259 2.19.3 2.882a27.83 27.83 0 01-.91 8.226.471.471 0 00-.007.106c-2.974-.49-2.628-.807-4.339-.716a50.397 50.397 0 002.93-9.764c.305.019.611.002.912-.05a3.18 3.18 0 001.114-.683zm-17.468-14.953c.842 1.41 2.543 3.508 5.212 3.508.226-.002.451-.017.675-.044.308-.034.554-.037.688-.336a4.723 4.723 0 001.651.135 7.898 7.898 0 002.52-.953c.109.463.028 1.322.12 1.778a5.602 5.602 0 003.4 3.784 4.033 4.033 0 00-.586.657.491.491 0 00-.082.374.498.498 0 00.386.4.498.498 0 00.517-.203 3 3 0 01.815-.793c1.553-.955 2.862 1.621 2.6 3.455a5.2 5.2 0 01-.752 2.02 2.218 2.218 0 01-1.087.893 3.926 3.926 0 01-1.033-.02c-1.708-.226-1.846 2.328-2.531 3.314-2.292 3.254-6.072 4.673-8.691 4.147-2.953-.622-3.175-3.577-4.588-6.117-.905-1.645-1.881-2.61-1.9-4.418a4.69 4.69 0 01.43-1.757c.113-.064.068-.029.31-.279a3.481 3.481 0 012.421-.355.498.498 0 00.62-.37.502.502 0 00-.212-.53.5.5 0 00-.186-.074 4.353 4.353 0 00-2.33.111 6.889 6.889 0 00.434-2.8 7.073 7.073 0 012.562-.443.5.5 0 100-1 8.899 8.899 0 00-2.534.361c.063-1.607.239-3.473 1.151-4.445zm-29.994 39.522c1.75-2.482 4.572-3.1 6.662-5.3 1.787-1.872 2.329-4.544 4.012-6.329 1.615-1.706 4.133-2.595 6-4.217 2.723-2.368 5.192-7.563 10.627-8.96a20.746 20.746 0 012.247 4.418.503.503 0 00-.364.427 24.998 24.998 0 00.176 6.736 5.219 5.219 0 00.968 2.853c.724.724 1.969.064 2.873-.413a3.058 3.058 0 011.675-.47c.422-.03.841-.097 1.252-.2-2.437 2.377-2.615 5.82.338 7.831.075 2.242-1.475 4.231-2.218 5.185-.343.437-1.426 1.2-1.241 2.171.2 1.075 1.1 1.323 1.931 1.4-.026.833.192 2.243.2 2.484.067 2.468.039 5.241.266 8.06-3.307-.514-6.172-1.262-9.349-1.6a.507.507 0 00-.052-.223 9.711 9.711 0 01-1-3.011c-.061-1.774.957-3.9 1.023-5.882.129-3.568-.572-6.4-.45-10.548a.503.503 0 00.008-.3c.054-1.86.234-4.25.418-6.06a.495.495 0 00-.111-.368.498.498 0 00-.534-.163.502.502 0 00-.355.431 93.644 93.644 0 00-.416 5.955c-3.052 1.39-6.263 2.052-8.683 4.5-1.1 1.112-1.706 2.417-2.657 3.5-1.042 1.189-2.361 2.046-3.464 3.321-.785.918-1.848 2.513-3.024 2.716-.526.09-.942-.407-1.405-1.2a14.67 14.67 0 00-3.2-4.556 8.449 8.449 0 00-1.915-.854 1.403 1.403 0 01-.664-.427c-.023-.03-.058-.205.426-.907zm-13.42 9.018c0 .17-.085 1.932-.023 2.477l-1.321.891c-.064-.132-.036-.078-.175-.236a.492.492 0 00.1-.273 3.461 3.461 0 011.419-2.859zm-.761 4.181c7.89-5.449 10.646-6.979 14.5-10.763.413.148.815.328 1.2.538.932.853 1.699 1.87 2.264 3-1.69.814-8.323 5.37-9.567 7.166-.94 1.344-.5 4.281-1.5 5.142-.3-.658-.433-1.92-1.243-2.214a1.092 1.092 0 00-.52-.039 1.086 1.086 0 00-.48.204 8.093 8.093 0 00-2.435 3.238 15.48 15.48 0 01-1.288 2.183 1.689 1.689 0 01-.015-.426 9.46 9.46 0 011.142-3.642c.864-1.73.9-1.8.437-2.066-.5-.247-.764.2-1.421 1.308-.615 1.016-1.148 2.075-1.72 3.108a5.54 5.54 0 01.6-1.8c.377-.829 1.149-2.545.248-2.71-.516-.1-.61.467-.745.747-.458.986-.341.624-.723 1.556a8.835 8.835 0 01-1.233 2.385 3.137 3.137 0 01.02-.666 8.182 8.182 0 011.48-3.506.526.526 0 00-.088-.7c-.5-.4-.756.247-1.575.934a3.779 3.779 0 01-1.486.749.433.433 0 01-.021-.189c.016-1.29 3.355-2.976 4.169-3.537zm-27.3 1.293c-2.424.031-2.264.2-2.255.055a1.55 1.55 0 00-.757-1.6c.146-.762.327-1.535.554-2.34a13.649 13.649 0 002.458 3.885zm-5.755-3.66a2.325 2.325 0 00-2.711-1.331c-.152.031-.3.074-.453.116a232.53 232.53 0 012.232-11.453c1.128 3.231 2.073 7.128 3.6 10.969a.451.451 0 00-.028.134 30.438 30.438 0 00-.854 3.351 5.163 5.163 0 01-.654-.274 4.428 4.428 0 01-1.132-1.512zm23.232 14.879c-1.231-.123-2.519-1.165-4.537-2.319a44.017 44.017 0 016.8-.287c-1.109 1.322-1.949 2.637-2.263 2.606zm3.646-1.3a2.75 2.75 0 01-.785-.458c.215-.262.44-.524.682-.782a21.3 21.3 0 019.125 3.236c-3.809-.185-5.936-.467-9.026-1.995l.004-.001zm13.526 12.074a4.336 4.336 0 01-1.348 2.23 8.698 8.698 0 00.79-2.676.5.5 0 10-.993-.12 7.679 7.679 0 01-1.246 3.35 2.88 2.88 0 01-.736.678l-.054.014a19.765 19.765 0 001.381-5.009.499.499 0 00-.773-.507.501.501 0 00-.21.32 15.01 15.01 0 01-1.728 5.526c-.039.014-.078.03-.115.048a.534.534 0 00-.226.371 1.564 1.564 0 01-.61.427c-.211-.175.2-1.373.261-1.633.433-1.579.74-3.191.919-4.819.16-.64.089-1.316-.2-1.909a.616.616 0 00-.547-.26c-.407.031-.653.431-.87.838a5.904 5.904 0 01-1.21 1.581c-.513-1.539.949-3.831 1.625-6.768.057-.277.083-.558.079-.841 1.144.086 2.2.123 2.971.14a3.926 3.926 0 001.9.707 1.286 1.286 0 001.215-.751c.07 3.332.431 6.933-.275 9.064v-.001zm.274-10.059c-.394-1.129-1.9-2.266-2.679-2.986a7.053 7.053 0 012.706 1.74c-.031.14-.031-.104-.031 1.247l.004-.001zm2.478-.457c-1.672-1.225-2.1-2.175-3.909-3.094-1.323-.672-2.157-.712-2.516-.189-.408.605.334 1.265.8 1.682.272.255 2.78 2.285 2.145 2.748-.411.282-1.659-.527-2.069-.806a22.66 22.66 0 00-11.057-4.172c-7.312-.423-10.989 1.006-17.3 1.232a46.738 46.738 0 01-7.289-.376c-.6-.2-1.218-.339-1.845-.416a35.28 35.28 0 002.355-4.89c.32-.666.585-1.358.788-2.069 7.481-.749 15.092 1.717 21.727 1.564A10.8 10.8 0 0095.04 120c.198-.04.398-.061.6-.064a1.014 1.014 0 00.517.8 1.928 1.928 0 001.6-.214c-.327.881-.827 2.748-.167 3.413a.766.766 0 00.64.221c.353-.065.668-.262.882-.551a.868.868 0 00.661.87c.424.068.735-.266.949-.607a1.87 1.87 0 00-.017.832c.056.275.173.534.343.758a.778.778 0 00.543.213c.76 0 1.252-.873 1.606-1.533.278-.517.2-.32.686-1.266a7.267 7.267 0 012.094-2.855.871.871 0 01.12-.066c.192.288.33.608.408.944.189.6.367 1.169.835 1.354.673.273 1.4-.554 1.663-1.191a6.355 6.355 0 011.766 1.251c.134.13.258.269.372.417a2.24 2.24 0 00-.413.54 8.292 8.292 0 00-.962-.833.5.5 0 00-.587.81c.512.377.978.813 1.387 1.3.092.353.3.5.54.5.021 0 .039-.015.061-.017a1.139 1.139 0 00.811 1.815 3.1 3.1 0 01.233 1.308 12.94 12.94 0 00-4.351-4.453.498.498 0 00-.694.16.505.505 0 00.023.559c.04.053.089.098.146.132a11.506 11.506 0 014.36 4.814 3.22 3.22 0 01-.813-.451v-.001zm10.209-3.062c-.923.288-1.821.649-2.685 1.082a2.857 2.857 0 01-1.733.284s.032-.118.3-.324c.789-.46 1.602-.88 2.434-1.258.6-.336 1.017-.644 1.093-1.057a.685.685 0 00-.153-.569c-.469-.548-1.438-.321-2.017-.188-4.4 1.009-6.1 2.382-6.375 1.958-.14-.252.68-.792.943-.942a19.958 19.958 0 015.677-2.061.5.5 0 10-.2-.978 20.9 20.9 0 00-5.964 2.168c-.148.084-.279.2-.418.3a.398.398 0 00-.043-.064 1.506 1.506 0 00-.361-.251c-.178-.355.977-1.05 1.281-1.244a10 10 0 014.884-1.709.49.49 0 00.342-.174.507.507 0 00.119-.365.49.49 0 00-.174-.342.507.507 0 00-.365-.119c-1.772.125-3.485.69-4.984 1.644.952-1.586 2.892-2.141 4.755-2.368a.487.487 0 00.333-.188.495.495 0 00-.087-.7.506.506 0 00-.367-.105c-.534.067-1.063.168-1.584.3a3.253 3.253 0 012.024-.52c1.155.232 2.088.652 3.257.89 1.62.328 3.285.036 4.712.668a15.857 15.857 0 00.678 4.834c.058.259.14.512.223.764-1.362.828-4.071.287-5.545.635v-.001zm18.333 32.492c.022-.1.186-.493 1.374-1.2 1.9-1.125 4.276-2.17 5.641-2.015a2.901 2.901 0 00-.457 1.776 4.901 4.901 0 00.22 1.614c.05.136.113.266.188.39-4.882-.34-6.474.214-6.966-.564v-.001zm7.847-4.029a.51.51 0 00-.086-.053c-1.874-.689-5.125.969-6.9 2.02-1.129.675-1.714 1.263-1.84 1.853-.04.226-.005.458.1.662-.608.038-1.23.089-1.854.167a.485.485 0 00.011-.455c-1.428-2.811-3.743-4.806-5.2-7.64-.049-.1-.133-.364-.242-.694a16.533 16.533 0 00-.717-1.912 92.5 92.5 0 0012.24-3.958 65.986 65.986 0 017.153-2.489 7.27 7.27 0 012.074 2.715c1.132 3.177-1.707 7.224-.95 9.228a7.422 7.422 0 00-3.789.557v-.001zm-34.75-11.762c1.48-4.329 6.112-6.409 9.494-7.929 2.412-1.081 9.354-4.381 11.365-5.815.437-.36.932-.643 1.463-.839a.485.485 0 00.29-.138c4.957 1.572 8.232 2.864 13.922 3.158a33.685 33.685 0 006.714-.609 15.684 15.684 0 014.767.142 15.046 15.046 0 01-1.8 7.552 18.09 18.09 0 00-1.655 4.792 11.674 11.674 0 00.851 6.016c.362.675.653 1.386.868 2.122a13.376 13.376 0 00-2.515.048 2.839 2.839 0 00-1.349 1.444c-.261.477-.487.889-.9 1.038a7.512 7.512 0 01-2.014.232.499.499 0 00-.023-.321c-.273-.6.155-1.9.627-3.575.508-1.805 1.036-3.671.311-5.7a8.612 8.612 0 00-2.71-3.405 10.202 10.202 0 00-4.48-2.053.512.512 0 00-.381.084.495.495 0 00-.195.531.495.495 0 00.425.373 8.77 8.77 0 013.357 1.38c-6.4 1.911-16.592 6.831-22.918 6.687a.539.539 0 00-.51.49.5.5 0 00.489.51 16.98 16.98 0 003.5-.3 26.85 26.85 0 011.1 2.857c1.555 3.032 3.793 4.876 5.2 7.641.03.047.068.088.112.121-.786.133-1.556.343-2.3.627a14.45 14.45 0 00-3.337-1.628c.125-.426.146-.875.06-1.311-.071-.636-.083-.509.205-1.251.447-1.153.573-1.553.342-1.887a1.205 1.205 0 00-.182-.182 4.987 4.987 0 00-2.17-.43c-1.089-.078-8.293-1.285-8.538-1.227-.872.207-3.239.737-5.735 1.282-2.136-4.118-2.73-7.66-1.75-10.526v-.001zm-8.3 13.668c.208-.078.428-.118.65-.12 1.069-.087 15.156-3.287 15.259-3.311l8.352 1.23c.496-.017.992.05 1.466.2-.151.5-.6 1.524-.638 1.817-.023.281-.012.564.032.842.038.257.057.516.059.775-.16.186-.367.324-.6.4-.473.184-.958.335-1.452.452-.884.231-.776.178-5.944 2.308-3.486 1.437-2.748 1.1-3.637 1.506-1.235.562-2.12.964-3.086.724-2.044-.669-5.96-2.228-8.072-3.129a16.71 16.71 0 01-2.727-1.351c-.547-.501-.183-1.798.341-2.342l-.003-.001zm27.917 8.642c-.679.132-16.8 2.627-17.387 2.7a42.48 42.48 0 01-3.314.281c-3.847.015-7.692-.191-11.516-.616.008-.457.293-1.385.238-1.79-.081-.67-.707-1.8-.633-2.183.15-.178 6.2-1.835 6.794-2.068a.484.484 0 00.343-.159c2 .843 5.7 2.316 7.743 2.982 1.67.42 2.911-.452 4.49-1.088.681-.27 6.256-2.569 7.946-3.224a14.528 14.528 0 002.76-.93c.06.11.159.194.278.234 1.241.397 2.413.984 3.474 1.74a2.333 2.333 0 011 2.532 1.52 1.52 0 01-.891 1.168c-.42.199-.865.341-1.322.422l-.003-.001z"/><path fill="#0e2238" d="M92.319 69.37c.297.11.577.262.832.45a32.215 32.215 0 01-2.319 8.614.5.5 0 00.917.4 34.632 34.632 0 002.2-7.539c.09.78.251 1.55.479 2.3a8.421 8.421 0 005.588 5.328 6.065 6.065 0 00-.941 2.96.5.5 0 00.991.141c.272-1.92.548-2.389.718-2.457a.504.504 0 00.3-.47c.174.015.348.043.522.043 3.089 0 8.1-2.848 9.441-6.307.818-2.117.714-4.895 1.18-7.037.421-1.95.381-6.043-2.767-7.57.195-.483.351-.981.466-1.49a.498.498 0 00-.383-.59.502.502 0 00-.594.377 16.092 16.092 0 01-4.417 7.31c.329-1.2.7-2.16 1.079-4.056.2-1.052-.088-1.366-.183-1.469a.726.726 0 00-.624-.234c-1.256.118-6.878 6.013-7.829 7.134a29.978 29.978 0 01-1.111 1.526c.765-2.713 1.813-5.93 3.862-7.866a.5.5 0 10-.687-.727 14.73 14.73 0 00-3.437 6.06 2.178 2.178 0 00-2.643-1.294 3.736 3.736 0 00-2.337 3.767c.178.912.454 2.266 1.697 2.695zm.948-5.513c.651-.207 1.2.167 1.626 1.1a.493.493 0 00.386.278l-.134.437c-.644 2-.677 2.738-.135 3.034a.5.5 0 00.618-.11 29.6 29.6 0 002.147-2.79c.628-.737 1.776-1.938 2.962-3.1a.479.479 0 00.075-.014l.008.027a3.678 3.678 0 011.5.4.501.501 0 00.453-.892 4.856 4.856 0 00-1.142-.394 28.003 28.003 0 013.05-2.645 30.51 30.51 0 01-1.047 4.158c-.243.841-.333 1.35-.026 1.65a.6.6 0 00.612.134c1.687-.53 3.793-3.729 4.852-5.986 1.875.94 2.367 3.077 2.351 4.81a4.679 4.679 0 00-1.936-.874.519.519 0 00-.686.575c.077.4.471.416.648.42.71.203 1.354.588 1.871 1.115a27.53 27.53 0 00-.458 3.221 16.453 16.453 0 01-.744 4.055c-1.171 3.021-6.169 6.12-9.379 5.595a7.282 7.282 0 01-5.375-4.832c-.462-1.209-.242-3.126-1.272-3.967-1.576-1.335-2.007-.279-2.484-2.78a2.748 2.748 0 011.659-2.625z"/><path fill="#0e2238" d="M86.43 75.985a.5.5 0 00-.321.63c2.708 8.406 13.558 9.707 20.154 4.943a.502.502 0 00.112-.698.499.499 0 00-.698-.113c-6.1 4.41-16.143 3.243-18.616-4.439a.5.5 0 00-.63-.323zm6.078-8.795a5.32 5.32 0 00.779-.176c.042.117.088.23.12.35a.5.5 0 10.966-.257 5.1 5.1 0 00-1.038-2.028c-.358-.571-1.39-.037-.671.75.068.088.127.176.185.264-.143.037-.286.079-.431.106a.5.5 0 00.09.992zm8.28.174a.95.95 0 00.684-.424c.475-.816.581-1.26.376-1.589a.617.617 0 00-.588-.28c-.528.046-.909.792-1.01 1.075-.089.178-.12.379-.089.575a.954.954 0 00.261.52.58.58 0 00.366.123zm6.995 2.068a1.004 1.004 0 00.71-.454c.427-.725.587-1.2.355-1.564a.615.615 0 00-.576-.274c-.714.05-1.479 1.556-.9 2.107a.556.556 0 00.411.185zm-3.665 3.33a1.454 1.454 0 001.6-.331 2.191 2.191 0 00.288-1.685c-.21-2.675.78-3.273.06-3.63a.51.51 0 00-.73.475h-.021a8.793 8.793 0 00-.294 3.31 1.39 1.39 0 01-.074.882.524.524 0 01-.518.032 2.13 2.13 0 01-1.436-1.17.503.503 0 00-.683-.277.494.494 0 00-.282.51.5.5 0 00.065.195 3.063 3.063 0 002.025 1.689zm-2.682 3.002a5.583 5.583 0 002.077-.6.491.491 0 00.252-.297.509.509 0 00-.037-.388 3.24 3.24 0 00-1.031-1.14 5.132 5.132 0 00-.96-.549 2.009 2.009 0 00-1.578-.17 1.573 1.573 0 00-.377 2.356 2.115 2.115 0 001.654.788zm-.983-2.1c.024-.08.056-.106.046-.106a1.024 1.024 0 01.788.121c.46.196.881.475 1.24.823a4.727 4.727 0 01-.95.255 1.094 1.094 0 01-.994-.38.984.984 0 01-.13-.715v.002zm-1.389 2.786c.359.2.759.316 1.169.34a.5.5 0 10.037-1 1.756 1.756 0 01-.721-.216.5.5 0 10-.485.874v.002zm2.118-21.175c1.061.055 2.104.3 3.079.724.168.052.328.125.478.217a.492.492 0 00.326.2.498.498 0 00.565-.61.505.505 0 00-.081-.177 2.487 2.487 0 00-1.134-.642 9.27 9.27 0 00-3.19-.711.506.506 0 00-.521.478.497.497 0 00.478.52zm.704-2.485c.816.455 1.588.984 2.309 1.578a.5.5 0 10.637-.772 16.487 16.487 0 00-2.458-1.679.5.5 0 00-.488.873zm-23.407-6.876a.5.5 0 00.314-.89c-2.081-1.673-4.8-1.236-4.953-.523a.518.518 0 00.823.51c.318-.067.64-.114.963-.142a4.12 4.12 0 012.54.935.5.5 0 00.313.11zM75.672 48.1c-.397.273-.729.63-.971 1.047a.565.565 0 00.48.854 1.45 1.45 0 00.738-.307c.52-.354 1.094-.88.927-1.4-.178-.563-.746-.548-1.174-.193zm-14.883-4.873a.518.518 0 00.723.506l.1-.008c.226.005.453-.003.678-.024.01.23-.004.46-.043.687a.502.502 0 00.603.586.5.5 0 00.382-.416 5.8 5.8 0 00-.643-3.365.5.5 0 00-.94.345c.165.445.29.72.445 1.189a5.1 5.1 0 00-.553 0c-.285.023-.716.058-.752.5z"/><path fill="#0e2238" d="M42.332 65.425c.592 0 1.439-.858 1.679-1.039 1.133-.852 2.65-2.113 4.017-1.88a.501.501 0 00.505-.785.5.5 0 00-.336-.2c-1.75-.3-3.4 1.015-4.785 2.065 0 0-.527.448-.74.608.52-2.974 2.454-9.089 2.179-13.26a3.988 3.988 0 01.154-2.06c.525-.757 3.408-.344 4.253-.308 2.734.118 4.037-3.065 6.2-.357a55.818 55.818 0 01-4 2.888 10.37 10.37 0 011.62-2.364 6.34 6.34 0 01.656-.545.5.5 0 10-.584-.81c-2.218 1.594-4.414 5.887-3.98 10.612.287 3.511-.15 4.456-1.757 6.636a9.201 9.201 0 00-1.93 3.728c-1.164 4.112-1.7 9.646-3.68 13.08a.5.5 0 10.866.5c2.225-3.856 2.63-9.768 4.037-14.149.68-2 2.868-3.754 3.279-5.81.29-1.337.352-2.713.182-4.07-.17-1.921.104-3.855.8-5.653a.471.471 0 00.545.015 63.352 63.352 0 004.99-3.6c3.384-2.687 2.987-2.33 3.086-2.432.22.298.483.561.78.782a.5.5 0 10.586-.81c-1.473-1.065-1.48-3.214-.611-4.752a3.023 3.023 0 012.707-1.747c1.776.007 2.54 3.118 1.476 4.413a.5.5 0 10.773.634c.117-.144.22-.299.308-.463a3.074 3.074 0 003.678-.337A5.992 5.992 0 0071.434 41a7.03 7.03 0 00.2-.9 5.154 5.154 0 005.568 1.7c.43-.176.883-.285 1.346-.323.311.345.602.708.869 1.087a6.324 6.324 0 010 2.642c-.35 1.9-1.841 3.213-2.607 5.07-.575 1.4-.133 2.614-.61 3.907a.707.707 0 01-.17.272c-.2.16-1.11-.516-1.961-.155-.8.333-1.11 1.771-1.5 1.724-.39-.107-.887-2.082-2.13-1.62-1.793.664-.3 2.881-.494 3.306-.18.142-.382.25-.6.32a3.246 3.246 0 00-1.23.782c-.476.421-.6.513-1.023.582a3.762 3.762 0 01-1.913-.65 6.18 6.18 0 01-1.4-1.079 15.803 15.803 0 01-2.741-4.04.499.499 0 10-.9.435c.44.906.958 1.772 1.547 2.59a16.403 16.403 0 00-2.732 2.9.502.502 0 00.107.698.5.5 0 00.699-.107 15.331 15.331 0 012.526-2.685c.169.21.348.414.527.617a15.098 15.098 0 01-2.55 5.62c-.735.81-1.426 1.66-2.07 2.545-1.307 2.211-.11 5.08-.467 7.368-.486 3.547-2.986 8.9-4.013 11.981a.5.5 0 10.949.316c1.1-3.3 3.36-7.96 4.007-11.914.53-2.123-.731-5.287.359-7.2 1.505-2.063 1.789-2.034 2.548-3.24a15.988 15.988 0 002.058-4.676 5.8 5.8 0 002.926 1.462 31.157 31.157 0 01-.56 3.302c-.722 3.463-1.357 5.263-1.541 5.983-.042.163-.1.375-.162.576a11.683 11.683 0 00-1.978-4.366.501.501 0 00-.8.6 9.743 9.743 0 011.649 3.427c.356 1.343.534 1.723.894 1.845a.536.536 0 00.158.023c.725 0 1.039-1.2 1.209-1.857.215-.845.8-2.41 1.552-6.025.494-2.333.4-2.672.58-3.537.457-.152.872-.41 1.21-.754a2.3 2.3 0 01.94-.6c1.315-.532 1.435-.994 1.02-2.38-.284-.95-.242-1.127.046-1.24.112.04.338.4.459.6.286.461.61.985 1.162 1.073.875.15 1.32-.643 1.614-1.168.4-.71.418-.766 1.173-.524a1.439 1.439 0 001.494-.1c.211-.184.37-.42.459-.687.532-1.33.126-2.729.6-3.87.967-2.347 3-3.5 2.789-7.28 1.8.968 4.287 1.017 5.645-.529 2.7-3.172-2.151-5.567-3.292-7.232-.347-.51-.07-1.3-.041-2.054a4.936 4.936 0 00-.73-2.919 5.315 5.315 0 00-4.13-2.142c-.531-.017-1.465.207-1.69.064-.223-.143-.44-1.2-.632-1.647a6.868 6.868 0 00-3-3.36 6.42 6.42 0 00-5.016.212c-.591.277-1.286.87-1.674.88-.148-.05-.585-.674-.8-.857a4.56 4.56 0 00-5.888-.08 5.556 5.556 0 00-1.878 4.06c.02.363-.033.725-.156 1.066-.339.124-.7.169-1.06.132-2.065.018-4.368.987-5.24 2.88a5.15 5.15 0 001.232 5.436c.287.308.644.691.669.961.015.153-.267.422-.435.584-3.868 3.74-.48 6.585 4.668 8.132l-.832.64a5.284 5.284 0 00-.637-.687c-2.552-2.173-4.18.708-6.31.651-1.37-.059-4.205-.578-5.148.792-.365.83-.47 1.75-.3 2.64.244 3.7-1.4 9.19-1.977 12.177-.127.657-.51 1.68.075 2.118a.605.605 0 00.383.131zm9.5-24.045c.6-1.76 2.124-2.052 2.008-3.227-.08-.87-1.01-1.535-1.346-2.026-1.958-2.92-.633-5.6 3.093-6.137.553-.078 1.547.115 2.2-.314.758-.49.549-1.865.64-2.379.515-3.489 3.947-4.565 6.094-2.739.086.084.164.175.235.271.728.91 1.174 1.187 2.74.18a5.35 5.35 0 014.74-.545A5.73 5.73 0 0174.9 27.83c.458 1.6.815 1.932 2.452 1.72a3.32 3.32 0 01.589-.048 4.199 4.199 0 013.327 1.687c.518.873.696 1.905.5 2.9-.235 1.783.085 2.131 1.893 3.728 1.883 1.664 3.022 2.867 1.743 4.37-1.164 1.325-3.59 1.03-5.09-.157a.954.954 0 00-.114-.23.5.5 0 00-.464-.472 1.76 1.76 0 00-1.157-.86 5.238 5.238 0 00-1.685.378 4.135 4.135 0 01-4.457-1.348c-.484-.75-.707-1.1-1.161-.907-.4.17-.51.7-.681 1.6a5 5 0 01-1.906 2.965c-.793.535-1.722 1.032-2.734.15l-.014-.009c.369-2.055-.787-4.574-2.89-4.583-3.153-.013-5.076 3.826-3.985 6.628-.064.058-.122.12-.175.188-.838.68-.474.386-.95.758a.488.488 0 00-.246-.174c-2.36-.68-6.662-2.409-5.863-4.734zm2.138 56.13a5.154 5.154 0 013.052-1.836.502.502 0 00.186-.906.499.499 0 00-.375-.077 6.157 6.157 0 00-3.657 2.21.5.5 0 00.794.608v.002zm-9.426 5.304a2.15 2.15 0 00-.391-.278.559.559 0 00-.514-.207.566.566 0 00-.442.335c-.144.509.462.706.641.858.298.297.569.621.807.967a.507.507 0 00.322.218.509.509 0 00.38-.078.504.504 0 00.204-.525.502.502 0 00-.082-.181 7.684 7.684 0 00-.925-1.109zm21.761 16.744a.502.502 0 00-.7-.063 48.338 48.338 0 01-6.934 4.863c-1.708.88-2.053 1.143-2.053 1.564a.502.502 0 00.72.45.5.5 0 00.232-.236 21.85 21.85 0 011.956-1.1 52.72 52.72 0 006.72-4.775.497.497 0 00.059-.703zm-2.65 4.052a.501.501 0 00.033.706.562.562 0 00.746-.069c.526-.567 1.483-1.6 1.548-1.657a.491.491 0 00.237-.389.5.5 0 00-.178-.42c-.39-.327-.41-.343-2.386 1.829zM17.806 93.745c.359.013.668.012.807.031A15.169 15.169 0 0124.7 95.96a.5.5 0 00.539-.84 16.114 16.114 0 00-6.475-2.332c-.217-.03-.732-.039-1-.042a.474.474 0 00-.47.49.524.524 0 00.512.51zm3.294-4.267c.309.269.581.576.811.915 1.969 2.553 1.778 2.974 2.309 2.974a.5.5 0 00.426-.761 21.812 21.812 0 00-2.955-3.935.509.509 0 00-.792-.204.573.573 0 00-.195.259c-.114.375.182.592.396.752zm5.483-31.799a16.519 16.519 0 013.571 10.5.5.5 0 00.5.488h.012a.498.498 0 00.488-.513 19.56 19.56 0 00-1.446-7.215 81.55 81.55 0 019.173-2.038.5.5 0 10-.153-.988 76.127 76.127 0 00-9.436 2.11 20.066 20.066 0 00-2.264-3.411.5.5 0 00-.83.557c.09.132.222.302.385.51zM73 110.624a.499.499 0 00.5.5c1.317 0 6.11-.2 8.015-.4a.503.503 0 00.45-.35.496.496 0 00-.17-.543.506.506 0 00-.38-.101c-1.88.2-6.611.393-7.912.393a.49.49 0 00-.356.146.5.5 0 00-.147.355zm6.32-2.763c-.15-.007-1.324.031-1.686-.03a.5.5 0 00-.747.583c.13.372.461.453 1.574.453.175 0 .784-.008.821-.007a.485.485 0 00.48-.288.481.481 0 00.038-.194.5.5 0 00-.48-.517zm-54.198 52.195a.5.5 0 101-.021c.54-.519 1.135-.98 1.772-1.374a24.13 24.13 0 017.956-3.9.507.507 0 00.307-.235.496.496 0 00-.041-.559.498.498 0 00-.535-.169c-2.99.831-5.8 2.209-8.287 4.064-.636.48-2.265 1.351-2.172 2.194zm8.64-7.472c-2.162.16-4.556.49-5.924 1.736a.514.514 0 00-.18.35.502.502 0 00.486.536.496.496 0 00.366-.147c1.3-1.181 4.121-1.389 5.326-1.478a.503.503 0 00-.074-1v.003zm-13.681-18.666a16.898 16.898 0 00-2.392 3.935 4.367 4.367 0 00-.127.653.497.497 0 00.255.494.507.507 0 00.554-.047.505.505 0 00.185-.335c.017-.151.044-.3.08-.447a8.53 8.53 0 01.416-.894 20.698 20.698 0 019.691-8.941.503.503 0 00.227-.644.5.5 0 00-.627-.27 21.317 21.317 0 00-8.262 6.496zm3.057-9.843a.528.528 0 00-.161-.748.52.52 0 00-.271-.079c-.518 0-.551.53-.573.881a33.21 33.21 0 00-.286 5.311.5.5 0 101 0 38.416 38.416 0 01.291-5.365zM9.253 166.493c.214 1.179-.29 2.56.74 3.814a.502.502 0 00.884-.269.5.5 0 00-.111-.366 2.84 2.84 0 01-.455-2 3.382 3.382 0 00-1.081-3.05 2.231 2.231 0 01-.808-1.534c.019-1 1.114-1.987 1.72-3.006a10.732 10.732 0 001.2-4.385c.559-5.424.09-10.794.5-16.162a61.876 61.876 0 014.083-17.686.5.5 0 00-.928-.373 63.019 63.019 0 00-4.151 17.98c-.412 5.38.049 10.814-.5 16.164a9.713 9.713 0 01-1.075 3.98c-.58.972-1.822 2.065-1.85 3.475-.033 1.746 1.63 2.325 1.832 3.418zM84.44 85.407a7.668 7.668 0 00-1.74-1.076.5.5 0 00-.628-.238.618.618 0 00-.369.508c0 .548.723.651.971.812A17.054 17.054 0 0186.88 89a.5.5 0 10.769-.637 16.218 16.218 0 00-3.209-2.955zm3.741 1.23c-.568-1.364-2.038-2.445-2.442-3.544a.503.503 0 00-.647-.312.502.502 0 00-.291.657c.5 1.374 1.945 2.355 2.458 3.583a.5.5 0 10.922-.384zm1.532 56.694a.503.503 0 00.557-.435c.38-3.083-1.609-8.336-2.189-9.062a.506.506 0 00-.829.071.503.503 0 00.048.554c.4.506 2.328 5.478 1.978 8.315a.5.5 0 00.435.557zm-7.637-13.265a3.111 3.111 0 00-1.63-.623.487.487 0 00-.44.522.518.518 0 00.52.474c.37.114.723.28 1.047.492.73.426 1.107.535 2.552 1.43 2.194 1.357 2.082 1.479 2.392 1.479a.495.495 0 00.476-.347.5.5 0 00-.186-.56 38.788 38.788 0 00-4.731-2.867zm1.783-.953c2.188 2.159 2.112 3.009 2.711 3.009a.5.5 0 00.407-.791 20.71 20.71 0 00-3.091-3.6.499.499 0 00-.874.289.5.5 0 00.115.362c.038.047.69.689.732.731zm61.173 5.801a10.3 10.3 0 002.93.774c-.18.955-.29 1.923-.329 2.894a.508.508 0 00.134.359.496.496 0 00.349.158.49.49 0 00.358-.134.5.5 0 00.159-.349c.038-.928.143-1.852.316-2.765 1.85.321 3.714.547 5.587.678a.5.5 0 00.033-1 53.794 53.794 0 01-5.414-.659c.112-.458.254-.909.423-1.35 1.176.06 2.355.038 3.528-.064a.491.491 0 00.341-.176.497.497 0 00.063-.554.491.491 0 00-.294-.248.507.507 0 00-.194-.022c-.998.078-2 .1-3 .067.141-.25.302-.489.48-.714a.496.496 0 00.053-.559.512.512 0 00-.302-.241.504.504 0 00-.533.177 6.52 6.52 0 00-.8 1.309c-2.415-.125-2.838-.346-3.017.206a.52.52 0 00.137.524.516.516 0 00.53.114c.309.012.215.035 1.953.137-.143.402-.265.812-.365 1.227a25.869 25.869 0 01-2.112-.466c-.589-.17-1.236-.681-1.594-.169a.609.609 0 00.079.695.494.494 0 00.501.151zm30.568 27.141a.493.493 0 00.057.379.5.5 0 00.308.227c3.7.914 7.445 1.638 11.219 2.168a.49.49 0 00.378-.09.506.506 0 00.187-.531.495.495 0 00-.238-.307.503.503 0 00-.188-.062 110.534 110.534 0 01-11.118-2.149.5.5 0 00-.605.365zm11.8 6.046a16.674 16.674 0 01-5.646-1.983c-.536-.26-1.439-.706-1.951-1.012a2.382 2.382 0 01-.591-.43.47.47 0 00-.519-.026.46.46 0 00-.134.126.545.545 0 00.073.726 15.955 15.955 0 002.924 1.634 16.489 16.489 0 005.77 1.966.502.502 0 00.074-1v-.001zm-64.322 2.635l-9.786 1.771a.505.505 0 00-.409.385.507.507 0 00.068.382.504.504 0 00.518.217l9.787-1.77a.501.501 0 00.332-.763.504.504 0 00-.51-.222zm9.714-129.122c1.66-.477 3.786.12 5.484-1.088 1.091-.77 1.58-1.893 2.461-2.6.02-.016.5-.4.657-.228a1.087 1.087 0 01.135.879 6.077 6.077 0 01-1.58 2.81c-.346.36-.824.88-.533 1.293a.507.507 0 00-.444-.079 1.12 1.12 0 00-.726 1.807 1.57 1.57 0 00-.249.226l-.01.02a.503.503 0 00-.657-.137.5.5 0 00-.173.17 1.49 1.49 0 01-.535.507c-.586.45-1.315.67-2.052.622a.505.505 0 00-.508.66.505.505 0 00.441.338 3.977 3.977 0 002.675-.79 2.35 2.35 0 00.454-.347c.011.248.087.49.219.7a.565.565 0 00-.066.016c-1.1.508-1.089 1.7-.113 2.466a4.52 4.52 0 002.8.913c.913 0 1.915-.3 2.1-1.188.07-.266.065-.547-.015-.81a3.58 3.58 0 00.589-.19c.882-.452.853-1.479.069-2.2a1.305 1.305 0 00.619-1.677 3.973 3.973 0 00-2.978-1.829 6.996 6.996 0 001.641-3.056 2.1 2.1 0 00-.31-1.73 1.45 1.45 0 00-2.078.053c-.986.8-1.484 1.911-2.411 2.566-1.358.965-3.454.446-5.182.943a.5.5 0 00.276.961zm7.916 7.142c-1.427.131-2.817-.738-2.757-1.224.029-.227.413-.18.52-.556.905.56 1.945.867 3.009.89a.506.506 0 01.12.476c-.079.328-.694.4-.892.414zm2.009-2.08a2.213 2.213 0 01-1 .2 4.887 4.887 0 01-2.923-.885.503.503 0 01-.123-.554.497.497 0 01.475-.312.573.573 0 00.084-.01 6.341 6.341 0 002.51.493c.341.173 1.1.59 1.063.97-.003.012-.003.054-.086.097zm-1.5-3.718c.618.18 1.981.88 1.66 1.443-.025.044-.151.188-.737.2h-.252c-1.491.057-2.935-.556-2.893-.9 0-.01.056-.088.264-.15a.496.496 0 00.329-.315.499.499 0 00-.063-.45c.35.264.845-.07 1.693.172h-.001zm-19.786-6.51c-.143-.262-.875-.58-.976-.619a31.687 31.687 0 01-7.6-2.654 8.859 8.859 0 01-1.837-.966c-.85-.634-1.674-1.28-2.265-.985a1.03 1.03 0 00-.478.883c-.007.778.134 1.55.417 2.275A10.227 10.227 0 00112.51 39a6.518 6.518 0 003.618.9 6.975 6.975 0 004.572-2.066c.457-.397 1.017-.863.731-1.385zm-8.273-2.036a26.86 26.86 0 005.916 2.094 3.164 3.164 0 01-1.547.142c-1.748-.238-5.45-1.744-6.793-3.416.784.44 1.593.835 2.424 1.18zm-1.106 2.99a3.366 3.366 0 013.287 1.476 5.3 5.3 0 01-3.287-1.479v.003zm4.462 1.463a4.361 4.361 0 00-5.283-2.273 7.216 7.216 0 01-1.9-3.69c1.758 2.966 6.7 4.787 8.707 4.787a4.177 4.177 0 001.737-.388 5.75 5.75 0 01-3.261 1.564zM56.62 97.337a.5.5 0 00-.6.38L55.742 99a.5.5 0 00.976.215L57 97.933a.5.5 0 00-.38-.596zm56.634 62.896l-1.367-.408a.5.5 0 00-.286.958l1.367.408a.5.5 0 10.286-.958z"/><path fill="#0e2238" fill-rule="evenodd" d="M57.234 142.932a.5.5 0 01.5-.5H95.19a.5.5 0 01.5.5v29.836a.5.5 0 01-.5.5H57.734a.5.5 0 01-.5-.5v-29.836zm1 .5v28.836H94.69v-28.836H58.234z" clip-rule="evenodd"/></svg>